 <svg version="1.0" xmlns="http://www.w3.org/2000/svg" viewBox="0 0 764.000000 763.000000"
        preserveAspectRatio="xMidYMid meet">
        <title>Cardio</title>
        <metadata>
          Created by potrace 1.15, written by Peter Selinger 2001-2017
        </metadata>
        <g transform="translate(0.000000,763.000000) scale(0.100000,-0.100000)" fill="#000000" stroke="none">
          <path d="M2685 6954 c-284 -41 -434 -90 -637 -206 -174 -98 -358 -263 -480
-428 -341 -460 -397 -1076 -144 -1580 46 -91 100 -178 156 -252 l35 -46 110
-6 c61 -3 308 -10 550 -16 242 -6 472 -13 511 -16 l72 -6 19 54 c11 29 143
410 293 845 151 436 275 792 276 790 1 -1 124 -508 273 -1127 149 -619 274
-1133 279 -1143 5 -12 77 174 237 608 126 344 231 625 234 625 3 -1 70 -135
148 -298 l143 -297 716 0 717 0 63 90 c115 164 197 352 234 537 73 356 27 701
-134 1014 -242 467 -659 764 -1183 843 -152 23 -427 9 -573 -28 -225 -59 -462
-176 -615 -306 -84 -70 -82 -70 -150 -14 -205 171 -477 298 -735 344 -91 16
-352 28 -415 19z" />
          <path d="M3383 5369 c-17 -46 -113 -324 -214 -617 l-184 -533 -120 6 c-166 8
-825 25 -963 25 l-112 0 558 -557 c534 -532 697 -701 1285 -1320 l258 -272
307 312 c169 172 571 580 892 907 322 327 665 675 764 772 l179 178 -690 0
-689 0 -81 165 c-45 91 -83 162 -86 158 -2 -4 -118 -322 -258 -705 -140 -384
-256 -698 -259 -698 -4 0 -127 501 -274 1113 -148 611 -272 1121 -276 1131 -5
15 -14 -1 -37 -65z" />
          <path d="M4430 1413 c0 -168 -1 -175 -18 -160 -77 70 -249 62 -323 -16 -71
-74 -99 -158 -99 -297 0 -189 68 -318 189 -359 79 -26 189 -4 235 48 27 30 36
26 36 -14 l0 -36 88 3 87 3 3 503 2 502 -100 0 -100 0 0 -177z m-51 -277 c54
-28 61 -52 61 -202 0 -152 -9 -179 -70 -204 -38 -16 -105 -7 -132 17 -53 47
-77 193 -49 299 10 38 50 86 81 97 29 10 81 7 109 -7z" />
          <path d="M4818 1554 c-57 -30 -65 -98 -19 -145 24 -24 38 -29 76 -29 38 0 52
5 76 29 47 48 38 116 -21 146 -36 19 -77 19 -112 -1z" />
          <path d="M2206 1534 c-93 -29 -183 -102 -224 -179 -49 -95 -73 -280 -53 -417
21 -149 106 -279 216 -333 66 -33 208 -45 282 -25 146 40 247 144 269 278 l7
42 -102 0 -101 0 0 -29 c0 -33 -33 -85 -73 -115 -23 -17 -43 -21 -106 -21 -69
0 -81 3 -114 27 -23 19 -43 47 -59 85 -20 52 -23 75 -23 213 0 141 2 160 23
205 42 90 91 125 179 125 69 0 126 -31 151 -83 12 -23 24 -54 27 -69 l5 -28
96 0 96 0 -7 48 c-17 114 -102 220 -211 262 -77 30 -208 36 -278 14z" />
          <path d="M3038 1299 c-74 -11 -116 -29 -163 -70 -38 -33 -74 -98 -75 -131 0
-16 11 -18 94 -18 l94 0 10 29 c11 30 56 61 90 61 66 0 112 -46 112 -113 l0
-34 -97 -5 c-157 -9 -250 -53 -292 -141 -56 -115 3 -248 128 -293 78 -28 197
-8 252 42 15 14 18 12 28 -17 11 -32 11 -32 63 -25 29 3 70 6 92 6 37 0 38 1
31 28 -4 15 -10 137 -14 272 -6 226 -9 248 -29 287 -51 98 -175 145 -324 122z
m162 -459 c0 -72 -22 -102 -90 -120 -75 -20 -129 13 -129 80 -1 69 44 98 152
99 l67 1 0 -60z" />
          <path d="M3815 1295 c-22 -8 -52 -28 -67 -45 -24 -26 -28 -27 -28 -11 0 47 -7
51 -101 51 l-89 0 2 -352 3 -353 95 0 95 0 3 234 c2 206 4 237 20 254 26 30
76 47 137 47 l55 0 0 89 0 89 -31 6 c-42 8 -47 8 -94 -9z" />
          <path d="M5285 1271 c-74 -35 -115 -78 -152 -156 -26 -56 -28 -69 -28 -185 0
-117 2 -128 27 -177 86 -162 274 -225 443 -149 110 49 168 132 187 265 26 188
-43 341 -185 407 -43 20 -68 24 -142 24 -79 0 -98 -4 -150 -29z m226 -144 c46
-31 68 -91 68 -193 1 -142 -62 -224 -161 -211 -82 11 -127 87 -128 212 0 95
30 174 77 199 42 23 104 20 144 -7z" />
          <path d="M4780 935 l0 -355 95 0 95 0 0 355 0 355 -95 0 -95 0 0 -355z" />
        </g>
      </svg>