<svg version="1.0" xmlns="http://www.w3.org/2000/svg" viewBox="0 0 766.000000 768.000000"
      preserveAspectRatio="xMidYMid meet">
      <title>Core</title>
      <metadata>
        Created by potrace 1.15, written by Peter Selinger 2001-2017
      </metadata>
      <g transform="translate(0.000000,768.000000) scale(0.100000,-0.100000)" fill="#000000" stroke="none">
        <path d="M2087 6933 c-38 -24 -67 -47 -65 -51 2 -4 45 -90 95 -192 180 -367
282 -703 314 -1040 20 -217 -2 -475 -56 -637 -34 -99 -142 -321 -273 -561
-229 -415 -349 -729 -431 -1122 -75 -363 -84 -712 -25 -1016 21 -108 23 -110
71 -97 21 7 57 16 79 22 l41 11 -13 58 c-59 247 -57 609 4 927 l18 90 60 -2
c73 -3 394 -61 559 -101 612 -150 1036 -397 1219 -709 20 -35 39 -63 41 -63 2
0 20 8 40 17 33 16 37 16 72 -1 29 -14 38 -15 44 -4 5 7 26 42 46 78 54 93
206 242 334 327 225 149 542 277 900 362 128 30 488 95 591 105 65 7 59 16 83
-114 58 -315 59 -669 1 -912 l-13 -58 41 -11 c22 -6 58 -15 79 -22 48 -13 50
-11 71 97 27 141 36 246 36 421 1 312 -44 592 -145 920 -95 305 -171 479 -375
850 -182 331 -255 502 -285 670 -77 438 28 970 303 1525 47 96 86 179 87 184
0 5 -30 29 -68 53 l-67 43 -20 -32 c-80 -130 -212 -422 -273 -609 -120 -359
-165 -633 -154 -944 9 -270 50 -433 168 -667 22 -44 39 -81 37 -83 -9 -8 -96
-48 -193 -90 -687 -294 -1360 -351 -2060 -175 -222 56 -615 209 -615 240 0 6
20 51 45 100 77 152 113 253 142 386 25 120 27 146 27 364 0 198 -3 255 -22
364 -43 250 -118 503 -219 741 -57 135 -175 372 -196 391 -9 9 -29 1 -80 -33z
m3265 -2465 c46 -71 208 -390 258 -506 56 -134 150 -406 150 -436 0 -9 -12
-17 -32 -20 -958 -133 -1594 -398 -1887 -788 l-43 -57 -44 58 c-67 89 -202
212 -321 291 -325 218 -760 367 -1343 462 -107 17 -196 32 -197 33 -11 5 101
325 166 479 46 105 221 448 241 469 4 5 18 2 31 -7 96 -62 498 -205 719 -255
277 -62 395 -75 720 -75 255 0 315 2 445 22 348 52 734 167 1020 307 50 24 93
44 96 44 4 1 13 -9 21 -21z" />
        <path d="M3753 4890 c-70 -16 -87 -67 -31 -96 47 -24 145 -15 170 16 22 27 20
38 -13 61 -30 21 -84 29 -126 19z" />
        <path d="M2755 1587 c-145 -48 -230 -142 -270 -298 -13 -50 -16 -97 -13 -214
l3 -150 42 -86 c80 -163 197 -229 389 -217 170 11 315 135 332 284 l5 44 -96
0 -95 0 -7 -32 c-19 -88 -85 -137 -183 -138 -95 0 -147 43 -182 154 -8 24 -12
94 -12 180 0 118 4 150 21 197 34 90 88 129 179 129 96 -1 162 -54 177 -142
l7 -38 94 0 94 0 0 33 c-1 45 -40 137 -81 186 -22 27 -60 55 -108 78 -66 34
-82 37 -165 40 -56 2 -106 -2 -131 -10z" />
        <path d="M4403 1349 c-18 -5 -49 -25 -68 -45 l-35 -35 0 36 0 35 -90 0 -90 0
0 -355 0 -355 95 0 95 0 0 238 c0 234 0 239 23 260 32 30 70 42 133 42 l54 0
0 89 c0 84 -1 89 -22 95 -30 8 -56 6 -95 -5z" />
        <path d="M3547 1336 c-91 -33 -154 -98 -193 -201 -14 -38 -19 -76 -19 -155 0
-92 3 -112 26 -160 37 -78 84 -129 152 -161 196 -92 414 0 473 200 24 81 16
241 -16 306 -35 72 -87 124 -155 157 -52 24 -72 28 -145 28 -47 -1 -102 -7
-123 -14z m213 -174 c29 -29 40 -50 50 -97 22 -107 -8 -233 -64 -270 -42 -28
-105 -30 -144 -5 -99 61 -109 298 -17 379 30 26 44 31 87 31 45 0 54 -4 88
-38z" />
        <path d="M4787 1336 c-136 -50 -205 -157 -214 -332 -9 -154 34 -250 147 -326
95 -63 228 -75 351 -29 51 19 133 85 127 101 -2 4 -22 28 -45 54 l-43 45 -26
-24 c-62 -57 -184 -71 -244 -27 -35 26 -70 80 -70 108 l0 24 221 0 221 0 -4
98 c-3 77 -9 108 -30 153 -29 65 -78 117 -134 144 -51 25 -202 31 -257 11z
m182 -151 c32 -16 64 -75 59 -108 -3 -21 -8 -22 -130 -25 -125 -3 -128 -2
-128 19 0 36 32 90 64 110 37 23 96 24 135 4z" />
      </g>
    </svg>