<svg version="1.0" xmlns="http://www.w3.org/2000/svg" viewBox="0 0 765.000000 764.000000"
      preserveAspectRatio="xMidYMid meet">
      <title>Endurance</title>
      <metadata>
        Created by potrace 1.15, written by Peter Selinger 2001-2017
      </metadata>
      <g transform="translate(0.000000,764.000000) scale(0.100000,-0.100000)" fill="#000000" stroke="none">
        <path d="M3406 6848 c-13 -18 -16 -56 -16 -205 l0 -183 -257 0 c-142 0 -288
-5 -325 -10 -134 -19 -240 -97 -296 -218 l-27 -57 -3 -2005 c-2 -1879 -1
-2006 15 -2017 13 -10 298 -13 1344 -13 1197 0 1329 2 1343 16 15 14 16 204
14 2017 l-3 2002 -29 62 c-52 113 -164 194 -293 213 -37 5 -186 10 -330 10
l-263 0 0 188 c0 170 -2 191 -18 205 -17 15 -61 17 -430 17 l-411 0 -15 -22z
m1546 -511 c64 -32 111 -80 142 -146 l21 -46 3 -1957 2 -1958 -1280 0 -1280 0
2 1958 3 1957 21 45 c42 90 117 152 205 169 24 5 508 8 1074 8 l1030 -2 57
-28z" />
        <path d="M2682 5444 c-22 -15 -22 -16 -22 -338 0 -262 3 -326 14 -342 14 -19
37 -19 1159 -19 955 0 1147 2 1160 14 15 12 17 49 17 342 0 327 0 328 -22 343
-20 14 -146 16 -1153 16 -1007 0 -1133 -2 -1153 -16z" />
        <path d="M2700 4639 c-13 -6 -28 -15 -32 -22 -4 -7 -8 -154 -8 -328 0 -257 3
-319 14 -335 14 -19 37 -19 1159 -19 955 0 1147 2 1160 14 15 12 17 49 17 341
0 292 -2 329 -17 341 -13 12 -205 14 -1142 16 -729 1 -1135 -2 -1151 -8z" />
        <path d="M2710 3833 c-8 -3 -23 -12 -32 -21 -16 -14 -18 -43 -18 -332 0 -309
0 -317 21 -336 20 -18 54 -19 1161 -19 l1140 0 19 24 c18 22 19 43 19 331 0
288 -1 309 -19 331 l-19 24 -1129 2 c-620 1 -1135 -1 -1143 -4z" />
        <path d="M2700 3019 c-13 -6 -28 -15 -32 -22 -4 -7 -8 -154 -8 -328 0 -257 3
-319 14 -335 14 -19 37 -19 1159 -19 955 0 1147 2 1160 14 15 12 17 49 17 341
0 292 -2 329 -17 341 -13 12 -205 14 -1142 16 -729 1 -1135 -2 -1151 -8z" />
        <path d="M2680 1418 l0 -181 -22 20 c-43 39 -85 53 -154 53 -114 0 -188 -51
-243 -169 -24 -52 -26 -67 -26 -191 0 -125 2 -139 27 -192 58 -124 130 -178
238 -178 59 0 143 32 170 65 14 17 15 16 20 -16 l5 -34 88 -3 87 -3 0 506 0
505 -95 0 -95 0 0 -182z m-28 -297 c28 -31 28 -32 28 -174 0 -156 -5 -174 -60
-202 -71 -37 -140 -9 -177 72 -23 49 -25 64 -21 146 5 105 22 147 71 178 49
31 122 22 159 -20z" />
        <path d="M760 1070 l0 -480 320 0 320 0 0 80 0 80 -220 0 -220 0 0 130 0 130
190 0 190 0 0 75 0 75 -190 0 -190 0 0 115 0 115 220 0 220 0 0 80 0 80 -320
0 -320 0 0 -480z" />
        <path d="M1825 1311 c-42 -11 -87 -35 -109 -60 -23 -26 -36 -19 -36 20 l0 29
-90 0 -90 0 0 -350 0 -350 95 0 95 0 0 253 0 254 25 23 c19 18 40 25 85 28 55
4 61 2 90 -26 l30 -30 0 -256 0 -256 95 0 95 0 0 271 c0 175 -4 285 -11 310
-14 46 -61 104 -100 124 -34 18 -132 27 -174 16z" />
        <path d="M4045 1305 c-22 -8 -52 -27 -67 -44 -30 -33 -38 -31 -38 11 l0 28
-90 0 -90 0 0 -355 0 -355 95 0 95 0 0 234 0 233 28 28 c35 36 62 45 128 45
l54 0 0 89 c0 84 -1 89 -22 95 -33 8 -48 7 -93 -9z" />
        <path d="M4462 1310 c-118 -18 -218 -96 -229 -179 l-6 -41 91 0 c88 0 90 1 96
25 7 29 60 65 94 65 37 0 88 -28 101 -56 6 -14 11 -40 11 -58 l0 -33 -106 -6
c-94 -4 -113 -9 -172 -38 -40 -21 -78 -49 -97 -72 -28 -36 -30 -45 -30 -121 0
-75 3 -86 28 -119 78 -103 254 -129 347 -50 17 14 32 24 33 22 2 -2 8 -17 15
-32 l12 -28 92 7 c51 4 94 8 96 9 1 1 -5 21 -13 45 -12 33 -15 91 -15 254 0
116 -4 227 -10 246 -32 115 -179 185 -338 160z m158 -449 c0 -75 -5 -86 -43
-110 -83 -50 -177 -20 -177 57 0 75 51 107 178 111 l42 1 0 -59z" />
        <path d="M5273 1311 c-39 -10 -123 -59 -123 -71 0 -6 -4 -10 -10 -10 -5 0 -10
16 -10 35 l0 35 -90 0 -90 0 0 -350 0 -350 95 0 95 0 0 248 c1 179 4 251 13
262 39 50 119 65 177 35 43 -22 50 -63 50 -317 l0 -228 91 0 90 0 -3 283 c-3
253 -5 286 -22 317 -24 45 -54 78 -88 96 -34 18 -132 26 -175 15z" />
        <path d="M5895 1298 c-80 -29 -142 -84 -183 -163 -25 -47 -27 -58 -27 -185 0
-155 13 -195 84 -273 62 -67 120 -92 216 -92 105 0 165 18 221 68 50 44 78 93
87 150 l6 37 -88 0 -88 0 -9 -31 c-18 -64 -109 -97 -173 -64 -52 26 -76 90
-75 200 1 54 7 106 16 130 27 73 110 105 178 70 30 -15 60 -61 60 -90 0 -12
15 -15 89 -15 l89 0 -5 43 c-18 139 -134 228 -296 226 -39 0 -85 -5 -102 -11z" />
        <path d="M6597 1296 c-147 -53 -224 -189 -215 -379 7 -147 65 -242 185 -303
53 -26 67 -29 158 -29 87 0 107 4 155 26 59 27 120 74 120 91 0 6 -18 32 -41
59 l-41 49 -36 -29 c-90 -70 -196 -67 -264 5 -25 27 -48 72 -48 95 0 5 93 9
226 9 l226 0 -4 98 c-3 79 -9 107 -31 154 -56 115 -141 168 -272 167 -44 0
-97 -6 -118 -13z m184 -153 c17 -10 35 -34 45 -60 27 -70 22 -73 -122 -73
l-127 0 6 35 c7 42 41 93 71 105 35 14 96 11 127 -7z" />
        <path d="M3010 1036 c0 -285 4 -313 55 -381 72 -93 233 -102 342 -19 l33 25 0
-30 0 -31 95 0 95 0 0 350 0 350 -100 0 -100 0 0 -255 c0 -250 0 -255 -22
-275 -36 -33 -91 -45 -139 -31 -65 20 -69 39 -69 321 l0 240 -95 0 -95 0 0
-264z" />
      </g>
    </svg>