<?xml version="1.0" standalone="no"?>
<!DOCTYPE svg PUBLIC "-//W3C//DTD SVG 20010904//EN"
 "http://www.w3.org/TR/2001/REC-SVG-20010904/DTD/svg10.dtd">
<svg version="1.0" xmlns="http://www.w3.org/2000/svg"
 width="599.000000pt" height="598.000000pt" viewBox="0 0 599.000000 598.000000"
 preserveAspectRatio="xMidYMid meet">
<metadata>
Created by potrace 1.15, written by Peter Selinger 2001-2017
</metadata>
<g transform="translate(0.000000,598.000000) scale(0.100000,-0.100000)"
fill="#000000" stroke="none">
<path d="M142 4463 c3 -560 4 -611 21 -648 44 -98 118 -135 269 -135 l89 0 -3
53 -3 52 -65 8 c-81 10 -120 32 -145 82 -19 38 -20 63 -23 618 l-3 577 -70 0
-70 0 3 -607z"/>
<path d="M2880 4839 c0 -216 -1 -231 -17 -224 -104 41 -275 62 -372 45 -143
-24 -221 -103 -258 -259 -25 -107 -25 -379 1 -470 51 -185 144 -257 331 -255
95 1 197 29 269 74 19 11 36 20 40 20 3 0 11 -20 17 -45 l11 -45 59 0 59 0 0
695 0 695 -70 0 -70 0 0 -231z m-65 -316 l60 -19 3 -315 2 -316 -58 -26 c-183
-82 -334 -71 -404 29 -47 67 -61 146 -56 323 4 130 8 165 26 212 25 64 64 105
118 125 54 20 229 13 309 -13z"/>
<path d="M750 4659 c-214 -32 -290 -161 -290 -489 0 -292 64 -427 223 -475 74
-22 218 -30 306 -16 217 34 291 138 307 431 11 190 -19 353 -79 432 -65 85
-139 115 -300 122 -56 3 -131 0 -167 -5z m278 -141 c96 -47 117 -111 117 -353
-1 -163 -3 -185 -23 -237 -43 -107 -125 -146 -284 -135 -142 9 -204 71 -227
224 -34 227 8 445 96 495 75 44 239 47 321 6z"/>
<path d="M1730 4654 c-30 -7 -94 -33 -142 -57 l-87 -44 -12 48 -13 49 -58 0
-58 0 0 -485 0 -485 70 0 70 0 2 382 3 382 40 23 c98 55 245 85 322 64 54 -15
101 -55 124 -106 17 -36 19 -72 19 -392 l0 -353 75 0 75 0 0 343 c0 364 -6
430 -46 508 -60 119 -212 168 -384 123z"/>
<path d="M3373 4660 c-217 -31 -297 -162 -297 -490 0 -270 53 -401 185 -459
137 -61 404 -49 510 22 44 29 95 105 114 170 23 75 37 238 29 342 -16 242 -77
350 -223 395 -74 23 -228 33 -318 20z m269 -138 c82 -36 116 -115 125 -292 12
-229 -28 -363 -119 -408 -58 -29 -170 -39 -251 -22 -75 15 -119 53 -149 128
-20 52 -22 74 -23 237 0 149 3 189 18 232 31 88 71 124 160 143 65 14 188 5
239 -18z"/>
<path d="M4346 4654 c-32 -8 -96 -34 -142 -58 l-84 -43 -14 46 -13 46 -57 3
-56 3 0 -486 0 -485 70 0 70 0 0 384 0 383 78 35 c169 77 298 77 372 -1 57
-60 60 -81 60 -460 l0 -341 70 0 71 0 -3 393 c-3 379 -4 394 -25 439 -31 66
-95 125 -156 143 -62 18 -162 18 -241 -1z"/>
<path d="M4850 3745 l0 -65 553 2 552 3 0 60 0 60 -552 3 -553 2 0 -65z"/>
<path d="M1530 2855 l0 -695 75 0 75 0 0 383 0 384 78 36 c193 89 335 73 403
-46 24 -42 24 -44 27 -399 l3 -358 70 0 70 0 -3 388 c-3 380 -3 388 -26 437
-28 60 -73 109 -127 138 -34 19 -56 22 -150 22 -100 -1 -117 -4 -190 -33 -44
-17 -97 -43 -117 -57 l-38 -26 0 261 0 260 -75 0 -75 0 0 -695z"/>
<path d="M2683 3140 c-217 -31 -297 -162 -297 -490 0 -270 53 -401 185 -459
137 -61 404 -49 510 22 44 29 95 105 114 170 23 75 37 238 29 342 -16 242 -77
350 -223 395 -74 23 -228 33 -318 20z m269 -138 c82 -36 116 -115 125 -292 12
-229 -28 -363 -119 -408 -58 -29 -170 -39 -251 -22 -75 15 -119 53 -149 128
-20 52 -22 74 -23 237 0 149 3 189 18 232 31 88 71 124 160 143 65 14 188 5
239 -18z"/>
<path d="M3668 3138 c-26 -5 -90 -31 -143 -57 l-96 -47 -13 46 -13 45 -57 3
-56 3 0 -486 0 -485 70 0 70 0 0 384 0 383 78 35 c169 77 298 77 372 -1 57
-60 60 -81 60 -460 l0 -341 70 0 71 0 -3 379 -3 379 55 27 c188 93 321 97 406
11 60 -59 64 -90 64 -471 l0 -325 70 0 70 0 0 364 c0 339 -1 368 -21 431 -62
200 -277 253 -537 130 -41 -19 -87 -45 -104 -56 -30 -22 -31 -22 -41 -3 -17
30 -67 74 -111 97 -48 24 -181 32 -258 15z"/>
<path d="M5084 3141 c-218 -35 -287 -153 -287 -491 0 -365 81 -480 352 -497
88 -5 354 11 388 24 10 4 13 18 11 47 l-3 41 -225 5 c-208 5 -228 7 -267 27
-23 13 -51 36 -62 52 -26 36 -51 131 -51 192 l0 47 233 4 c260 4 291 11 346
74 36 41 51 90 51 169 0 165 -58 258 -183 291 -65 17 -235 26 -303 15z m266
-134 c58 -29 81 -70 88 -156 3 -50 0 -75 -12 -99 -29 -57 -52 -62 -282 -62
l-207 0 5 89 c12 198 92 269 293 255 44 -3 86 -13 115 -27z"/>
<path d="M788 2214 c-103 -32 -146 -115 -155 -300 l-6 -112 -74 -12 -74 -12 3
-46 3 -45 73 2 72 2 0 -430 0 -431 75 0 75 0 2 428 3 427 140 0 140 0 3 -427
2 -428 70 0 70 0 2 428 3 427 70 0 70 0 0 -325 c0 -358 3 -385 58 -447 50 -57
104 -76 235 -81 l112 -5 0 56 0 55 -67 6 c-88 8 -152 40 -176 86 -15 31 -17
66 -15 345 l3 310 135 2 135 1 3 56 3 56 -140 0 -140 0 -3 138 -3 137 -55 0
-55 0 -6 -60 c-4 -33 -10 -94 -14 -136 l-6 -76 -72 -11 c-47 -7 -74 -7 -78 -1
-3 6 -88 10 -217 9 l-212 0 0 97 c1 175 35 213 194 213 l85 0 3 -62 3 -63 78
-3 78 -3 -3 98 -3 98 -56 3 c-45 2 -58 7 -62 21 -3 13 -18 20 -52 24 -79 11
-207 7 -257 -9z"/>
<path d="M2160 1804 c-30 -8 -91 -32 -135 -54 -44 -22 -83 -40 -86 -40 -4 0
-12 20 -19 45 l-13 45 -58 0 -59 0 0 -485 0 -485 70 0 70 0 0 379 0 379 33 20
c109 64 266 97 341 72 21 -7 53 -26 72 -43 63 -55 64 -61 64 -453 l0 -354 75
0 75 0 0 364 c0 339 -1 368 -21 431 -27 89 -90 156 -168 179 -66 19 -167 20
-241 0z"/>
<path d="M2934 1811 c-218 -35 -287 -153 -287 -491 0 -365 81 -480 352 -497
88 -5 354 11 388 24 10 4 13 18 11 47 l-3 41 -225 5 c-208 5 -228 7 -267 27
-23 13 -51 36 -62 52 -26 36 -51 131 -51 192 l0 47 233 4 c260 4 291 11 346
74 36 41 51 90 51 169 0 165 -58 258 -183 291 -65 17 -235 26 -303 15z m266
-134 c58 -29 81 -70 88 -156 3 -50 0 -75 -12 -99 -29 -57 -52 -62 -282 -62
l-207 0 5 89 c12 198 92 269 293 255 44 -3 86 -13 115 -27z"/>
<path d="M3608 1797 c-120 -34 -169 -104 -176 -248 -5 -104 14 -182 55 -221
53 -51 95 -61 273 -68 239 -9 270 -29 270 -172 0 -52 -5 -80 -16 -97 -33 -46
-65 -51 -329 -51 l-246 0 3 -47 3 -48 50 -8 c28 -4 142 -9 255 -10 191 -2 209
0 264 20 116 44 146 96 146 253 0 122 -15 166 -73 217 -52 45 -91 54 -277 62
-91 4 -177 13 -192 19 -39 16 -58 61 -58 132 0 78 20 121 68 146 32 16 66 19
265 22 l227 4 0 43 c0 40 -2 43 -32 49 -18 3 -123 8 -233 11 -150 4 -212 2
-247 -8z"/>
<path d="M4338 1797 c-123 -35 -170 -100 -176 -247 -6 -149 22 -216 112 -262
35 -19 65 -23 211 -29 187 -7 228 -18 259 -69 21 -37 22 -150 0 -191 -27 -54
-57 -59 -329 -59 l-245 0 0 -49 0 -49 88 -8 c163 -15 401 -11 463 8 127 40
162 90 167 239 5 125 -9 173 -62 224 -57 56 -103 67 -296 75 -221 8 -240 20
-240 148 0 153 25 166 333 170 l227 4 0 43 c0 40 -2 43 -32 49 -18 3 -123 8
-233 11 -150 4 -212 2 -247 -8z"/>
<path d="M40 1360 l0 -60 270 0 270 0 0 60 0 60 -270 0 -270 0 0 -60z"/>
</g>
</svg>
