<?xml version="1.0" standalone="no"?>
<!DOCTYPE svg PUBLIC "-//W3C//DTD SVG 20010904//EN"
 "http://www.w3.org/TR/2001/REC-SVG-20010904/DTD/svg10.dtd">
<svg version="1.0" xmlns="http://www.w3.org/2000/svg"
 width="1021.000000pt" height="161.000000pt" viewBox="0 0 1021.000000 161.000000"
 preserveAspectRatio="xMidYMid meet">
<metadata>
Created by potrace 1.15, written by Peter Selinger 2001-2017
</metadata>
<g transform="translate(0.000000,161.000000) scale(0.100000,-0.100000)"
fill="#000000" stroke="none">
<path d="M7276 1320 c-68 -21 -106 -98 -106 -216 l0 -63 -37 -6 c-60 -10 -63
-13 -63 -45 0 -29 1 -30 50 -30 l50 0 0 -290 0 -290 50 0 50 0 0 290 0 290 95
0 95 0 0 -290 0 -290 50 0 50 0 0 290 0 290 50 0 50 0 0 -225 c0 -241 5 -269
51 -312 31 -27 89 -43 162 -43 l57 0 0 40 0 40 -43 0 c-23 0 -58 8 -77 19 -53
28 -61 70 -58 291 l3 185 93 3 92 3 0 39 0 40 -95 0 -95 0 0 90 0 90 -35 0
c-19 0 -35 -1 -36 -2 0 -2 -4 -40 -8 -86 -5 -45 -11 -85 -15 -89 -7 -8 -36 -8
-238 -5 l-148 2 0 60 c0 114 34 150 141 150 l49 0 0 -45 0 -45 55 0 56 0 -3
63 -3 62 -37 3 c-23 2 -38 8 -38 16 0 24 -150 35 -214 16z"/>
<path d="M92 913 c3 -385 4 -410 23 -447 31 -62 62 -79 155 -84 l80 -5 0 36
c0 38 -12 47 -61 47 -18 0 -41 11 -61 29 l-33 29 -3 401 -3 401 -50 0 -50 0 3
-407z"/>
<path d="M1940 1166 l0 -154 -47 15 c-28 9 -89 16 -143 17 -81 1 -101 -2 -137
-21 -82 -44 -114 -129 -114 -305 -1 -163 19 -234 78 -290 40 -38 78 -50 156
-49 62 0 99 11 204 57 6 3 14 -7 18 -25 6 -28 10 -31 46 -31 l39 0 0 470 0
470 -50 0 -50 0 0 -154z m-32 -216 l32 -12 0 -215 0 -214 -47 -22 c-30 -13
-74 -22 -118 -25 -86 -4 -127 17 -155 81 -40 91 -34 290 11 363 31 51 71 66
164 60 44 -2 95 -10 113 -16z"/>
<path d="M4070 850 l0 -470 45 0 45 0 2 257 3 258 59 30 c81 40 170 46 219 16
60 -37 67 -70 67 -331 l0 -230 51 0 51 0 -4 263 c-3 245 -5 265 -25 302 -41
77 -88 105 -178 105 -57 0 -168 -30 -200 -54 -43 -33 -45 -25 -45 154 l0 170
-45 0 -45 0 0 -470z"/>
<path d="M463 1033 c-63 -19 -116 -71 -135 -135 -8 -27 -13 -98 -13 -193 0
-141 2 -153 26 -206 43 -92 101 -119 250 -120 193 -1 257 55 280 244 22 178
-14 333 -90 382 -69 46 -215 58 -318 28z m233 -84 c18 -9 38 -33 54 -64 23
-45 25 -62 25 -170 -1 -135 -11 -178 -56 -221 -29 -28 -33 -29 -130 -29 -101
0 -101 0 -129 32 -39 43 -50 90 -50 211 0 164 22 220 95 248 47 17 148 13 191
-7z"/>
<path d="M1155 1036 c-22 -7 -59 -22 -82 -34 -55 -28 -60 -28 -68 8 -6 27 -10
30 -46 30 l-39 0 0 -330 0 -330 50 0 50 0 0 261 0 260 57 26 c78 36 176 42
221 13 57 -35 62 -62 62 -325 l0 -235 50 0 50 0 0 243 c0 185 -4 255 -15 293
-16 54 -62 106 -108 123 -38 15 -132 13 -182 -3z"/>
<path d="M2233 1033 c-63 -19 -116 -71 -135 -135 -8 -27 -13 -98 -13 -193 0
-141 2 -153 26 -206 43 -92 101 -119 250 -120 193 -1 257 55 280 244 22 178
-14 333 -90 382 -69 46 -215 58 -318 28z m233 -84 c18 -9 38 -33 54 -64 23
-45 25 -62 25 -170 -1 -135 -11 -178 -56 -221 -29 -28 -33 -29 -130 -29 -101
0 -101 0 -129 32 -39 43 -50 90 -50 211 0 164 22 220 95 248 47 17 148 13 191
-7z"/>
<path d="M2925 1036 c-22 -7 -59 -22 -82 -34 -55 -28 -60 -28 -68 8 -6 27 -10
30 -46 30 l-39 0 0 -330 0 -330 50 0 50 0 0 261 0 260 57 26 c78 36 176 42
221 13 57 -35 62 -62 62 -325 l0 -235 50 0 50 0 0 243 c0 185 -4 255 -15 293
-16 54 -62 106 -108 123 -38 15 -132 13 -182 -3z"/>
<path d="M4807 1036 c-27 -7 -61 -22 -75 -33 -69 -52 -106 -217 -85 -382 23
-184 90 -242 277 -243 146 -1 212 30 255 121 24 53 26 65 26 206 0 94 -5 166
-13 193 -17 56 -62 106 -115 127 -56 23 -206 29 -270 11z m233 -94 c53 -40 65
-77 68 -212 4 -211 -28 -262 -167 -268 -149 -7 -190 38 -199 218 -8 168 25
256 106 279 54 15 161 5 192 -17z"/>
<path d="M5472 1030 c-29 -10 -68 -28 -87 -40 l-34 -21 -9 33 c-7 30 -12 33
-50 36 l-42 3 0 -330 0 -331 50 0 50 0 0 258 0 258 61 30 c51 24 75 29 135 29
69 0 76 -2 105 -31 43 -43 48 -81 49 -331 l0 -213 45 0 46 0 -1 258 -1 257 60
28 c124 58 232 44 271 -34 18 -35 20 -60 20 -274 l0 -235 51 0 50 0 -3 263
c-3 246 -4 264 -25 302 -11 22 -32 50 -45 63 -67 62 -214 54 -346 -19 l-53
-30 -21 27 c-49 62 -172 82 -276 44z"/>
<path d="M6436 1039 c-93 -23 -136 -77 -157 -193 -14 -81 -7 -272 13 -330 18
-56 74 -111 126 -126 46 -12 232 -15 313 -4 46 6 49 8 49 35 l0 29 -120 0
c-149 0 -209 12 -244 49 -28 29 -45 81 -46 137 l0 32 163 3 c149 4 165 6 200
27 20 13 37 19 37 13 0 -8 58 -11 180 -11 l180 0 0 40 0 40 -169 0 -168 0 -1
65 c-3 146 -58 195 -227 201 -49 2 -108 -1 -129 -7z m208 -83 c35 -15 66 -72
66 -122 0 -32 -25 -80 -45 -88 -9 -3 -79 -6 -156 -6 l-139 0 0 48 c0 86 32
150 85 172 32 14 153 11 189 -4z"/>
<path d="M8172 1030 c-29 -10 -68 -28 -87 -40 l-34 -21 -9 33 c-7 30 -12 33
-50 36 l-42 3 0 -330 0 -331 50 0 50 0 0 258 0 258 61 30 c51 24 75 29 135 29
69 0 76 -2 105 -31 43 -43 48 -81 49 -331 l0 -213 45 0 45 0 0 263 c0 233 -2
266 -19 302 -10 22 -27 48 -37 57 -56 50 -169 62 -262 28z"/>
<path d="M8696 1039 c-93 -23 -136 -77 -157 -193 -14 -81 -7 -272 13 -330 18
-56 74 -111 126 -126 46 -12 232 -15 313 -4 46 6 49 8 49 35 l0 29 -120 0
c-149 0 -209 12 -244 49 -28 29 -45 81 -46 137 l0 32 163 3 c147 4 165 6 198
26 38 24 59 58 60 101 0 22 3 19 14 -16 27 -86 75 -111 216 -112 53 0 110 -5
128 -11 54 -19 78 -99 48 -159 -20 -39 -67 -49 -234 -49 l-153 -1 0 -29 c0
-37 19 -41 206 -42 158 0 206 12 249 63 23 27 25 38 25 123 0 91 -1 96 -31
129 -38 44 -79 56 -195 56 -100 0 -149 12 -164 40 -15 29 -12 113 5 137 23 33
76 43 228 43 l137 0 0 29 c0 28 -2 30 -57 37 -32 4 -107 8 -168 8 -164 1 -218
-31 -244 -141 -7 -29 -9 -32 -10 -13 -1 14 -10 44 -21 68 -27 60 -83 84 -205
88 -49 2 -108 -1 -129 -7z m208 -83 c35 -15 66 -72 66 -122 0 -32 -25 -80 -45
-88 -9 -3 -79 -6 -156 -6 l-139 0 0 48 c0 86 32 150 85 172 32 14 153 11 189
-4z"/>
<path d="M9696 1040 c-54 -10 -88 -31 -120 -74 -17 -23 -21 -42 -21 -114 0
-74 3 -92 22 -118 34 -47 87 -64 199 -64 145 0 184 -23 184 -112 0 -92 -38
-108 -252 -108 l-148 0 0 -29 c0 -37 18 -41 203 -42 186 -1 242 18 271 92 21
51 20 138 0 189 -27 66 -65 83 -213 90 -168 9 -181 16 -181 109 0 94 37 111
243 111 l137 0 0 29 c0 26 -4 29 -42 35 -85 11 -234 15 -282 6z"/>
<path d="M3280 420 l0 -40 375 0 375 0 0 40 0 40 -375 0 -375 0 0 -40z"/>
</g>
</svg>
