<svg version="1.0" xmlns="http://www.w3.org/2000/svg" 
          viewBox="0 -8 599.000000 599.000000" preserveAspectRatio="xMidYMid meet">
          <title>Nutrition</title>
          <metadata>
            Created by potrace 1.15, written by Peter Selinger 2001-2017
          </metadata>
          <g transform="translate(0.000000,599.000000) scale(0.100000,-0.100000)" fill="#000000" stroke="none">
            <path d="M3570 5433 c-14 -2 -68 -17 -120 -33 -303 -90 -552 -238 -652 -390
l-16 -25 -37 45 c-57 67 -225 230 -254 244 -53 26 -121 -19 -121 -80 0 -9 60
-76 133 -149 72 -72 161 -172 196 -221 83 -116 163 -275 185 -367 l7 -28 -38
20 c-72 36 -250 91 -333 102 -114 16 -286 6 -385 -21 -169 -46 -324 -140 -461
-282 -125 -129 -185 -241 -235 -438 -104 -413 16 -1000 287 -1407 73 -109 254
-293 352 -356 101 -67 219 -116 331 -139 140 -29 340 -21 466 18 112 35 138
35 250 0 111 -34 299 -46 422 -26 210 33 406 142 579 322 91 94 138 159 217
299 184 324 278 733 248 1079 -27 300 -113 503 -282 666 -160 153 -295 229
-494 275 -82 18 -114 21 -228 16 -153 -6 -267 -33 -412 -98 -49 -22 -95 -43
-101 -45 -6 -3 -14 8 -17 24 -3 16 -9 41 -12 54 -6 24 -4 25 59 31 153 14 351
136 561 345 258 255 318 467 155 550 -37 18 -59 22 -135 21 -49 -1 -101 -4
-115 -6z m175 -180 c-20 -85 -213 -307 -366 -422 -142 -108 -293 -167 -359
-143 -23 8 -20 12 54 58 211 134 201 125 204 171 2 32 -2 46 -19 62 -41 38
-76 28 -215 -58 -71 -44 -130 -78 -132 -76 -11 10 24 79 59 119 127 144 508
312 718 315 l63 1 -7 -27z m-1225 -869 c139 -26 272 -80 402 -164 73 -48 84
-47 173 10 388 250 797 219 1101 -84 107 -107 159 -200 200 -361 32 -124 44
-372 25 -518 -72 -546 -373 -1017 -740 -1160 -191 -74 -369 -74 -593 2 l-86
29 -98 -34 c-203 -71 -340 -80 -504 -34 -371 104 -693 534 -802 1070 -20 99
-23 145 -23 330 0 193 2 224 23 305 13 50 44 132 69 184 75 156 239 306 416
379 144 60 286 75 437 46z" />
            <path d="M1926 3999 c-128 -143 -197 -434 -167 -704 17 -150 59 -314 87 -342
31 -31 78 -30 109 2 29 28 31 60 10 131 -48 165 -60 425 -25 572 23 95 56 165
111 238 44 57 48 89 18 128 -16 20 -29 26 -59 26 -33 0 -44 -7 -84 -51z" />
            <path d="M755 1317 c-3 -6 -4 -183 -3 -392 l3 -380 77 -3 78 -3 2 273 3 273
155 -270 156 -270 82 -3 82 -3 0 396 0 395 -75 0 -75 0 -2 -267 -3 -268 -153
268 -153 267 -85 0 c-59 0 -86 -4 -89 -13z" />
            <path d="M2990 1260 l0 -70 75 0 75 0 0 70 0 70 -75 0 -75 0 0 -70z" />
            <path d="M3650 1260 l0 -70 80 0 80 0 0 70 0 70 -80 0 -80 0 0 -70z" />
            <path d="M2220 1200 l0 -80 -40 0 -40 0 0 -55 0 -55 40 0 40 0 0 -195 c0 -152
3 -202 15 -224 22 -43 100 -66 187 -55 l48 7 0 53 0 54 -40 0 c-57 0 -61 14
-58 197 l3 158 48 3 47 3 0 55 0 54 -50 0 -50 0 0 80 0 80 -75 0 -75 0 0 -80z" />
            <path d="M3310 1200 l0 -80 -40 0 -40 0 0 -55 0 -55 40 0 40 0 0 -195 c0 -152
3 -202 15 -224 22 -43 100 -66 187 -55 l48 7 0 53 0 54 -40 0 c-57 0 -61 14
-58 197 l3 158 48 3 47 3 0 55 0 54 -50 0 -50 0 0 80 0 80 -75 0 -75 0 0 -80z" />
            <path d="M2804 1121 c-22 -10 -53 -34 -67 -52 l-27 -34 0 43 0 42 -75 0 -75 0
0 -290 0 -290 74 0 73 0 5 173 c5 190 14 224 68 252 16 8 49 15 75 15 l45 0 0
80 0 80 -27 0 c-16 0 -46 -9 -69 -19z" />
            <path d="M4101 1125 c-56 -18 -123 -83 -153 -149 -19 -42 -23 -68 -23 -146 1
-115 25 -179 89 -238 56 -52 103 -67 206 -67 73 0 93 4 142 28 99 48 148 140
148 277 0 144 -61 250 -166 289 -64 25 -175 27 -243 6z m179 -130 c44 -23 70
-82 70 -160 0 -110 -42 -173 -122 -182 -34 -4 -50 0 -78 19 -46 31 -63 69 -68
150 -7 113 45 187 131 188 21 0 51 -7 67 -15z" />
            <path d="M4872 1126 c-18 -6 -49 -27 -68 -45 l-34 -34 0 37 0 36 -75 0 -75 0
0 -290 0 -290 80 0 80 0 0 185 c0 208 8 243 59 269 53 28 118 15 140 -28 7
-13 12 -99 14 -221 l2 -200 78 -3 77 -3 0 228 c0 253 -8 289 -66 330 -57 41
-147 53 -212 29z" />
            <path d="M1530 908 c0 -118 5 -230 11 -251 14 -52 60 -101 107 -115 85 -26
176 -9 226 41 l25 25 3 -32 3 -31 73 -3 72 -3 0 291 0 290 -75 0 -75 0 0 -169
c0 -199 -4 -222 -41 -262 -25 -27 -33 -30 -80 -27 -43 2 -55 8 -73 31 -19 25
-21 44 -24 227 l-4 200 -74 0 -74 0 0 -212z" />
            <path d="M2990 830 l0 -290 75 0 75 0 0 290 0 290 -75 0 -75 0 0 -290z" />
            <path d="M3652 833 l3 -288 78 -3 77 -3 0 291 0 290 -80 0 -80 0 2 -287z" />
          </g>
        </svg>