    <svg version="1" id="Layer_1" viewBox="0 0 978 120">
        <style>
            .st0 {
                fill: none;
            }

            .st1 {
                fill: #ffffff;
            }
        </style>
        <g>
            <path class="st0"
                d="M306 50c-7 0-14 5-14 15s7 14 14 14 14-5 14-14-7-15-14-15zM462 69h12l-6-17zM159 50h-7v12h7c4 0 6-2 6-6 0-3-2-6-6-6zM18 50h-7v13h7c4 0 7-3 7-7 0-3-3-6-7-6z">
            </path>
            <path class="st1" d="M688 68h-7v11h7c4 0 6-2 6-5 0-4-2-6-6-6z"></path>
            <path class="st1"
                d="M625 3v119h351V3H625zm64 84h-17V43h16c9 0 14 5 14 12 0 4-3 8-7 9 4 1 8 5 8 10 0 7-5 13-14 13zm82-36h-19v10h17v7h-17v10h19v9h-27V43h27v8zm57 36c-12 0-17-7-18-13l8-2c1 4 4 8 10 8 4 0 7-2 7-6 0-2-2-4-5-5l-7-1c-7-1-11-6-11-13s7-13 15-13c11 0 15 6 16 11l-8 2c0-2-2-6-8-6-4 0-7 3-7 6 0 2 2 4 5 5l6 1c8 2 13 7 13 13 0 7-6 13-16 13zm89-36h-14v36h-9V51h-14v-8h37v8zm13 36c-3 0-5-3-5-6s2-5 5-5c4 0 6 2 6 5s-2 6-6 6z">
            </path>
            <path class="st1"
                d="M693 55c0-3-2-5-6-5h-6v11h6c4 0 6-2 6-6zM19 43H3v44h8V70h8c9 0 14-6 14-14s-5-13-14-13zm-1 20h-7V50h7c4 0 7 3 7 6 0 4-3 7-7 7zM73 87h28v-9H82V68h17v-7H82V51h19v-8H73zM174 56c0-7-5-13-14-13h-17v44h9V70h4l9 17h9l-9-18c6-2 9-7 9-13zm-15 6h-7V50h7c4 0 6 3 6 6 0 4-2 6-6 6zM233 61l-6-1c-3-1-5-3-5-5 0-3 3-6 7-6 6 0 8 4 8 6l8-2c-1-5-5-11-16-11-8 0-15 6-15 13s4 12 11 13l6 1c4 1 6 3 6 5 0 4-3 6-7 6-7 0-10-4-10-8l-8 2c1 6 6 13 18 13 10 0 15-6 15-13 0-6-4-11-12-13zM306 42c-12 0-22 8-22 23 0 14 10 22 22 22s23-8 23-22c0-15-11-23-23-23zm0 37c-7 0-14-5-14-14s7-15 14-15 14 5 14 15-7 14-14 14zM399 72l-19-29h-10v44h8V55l20 32h9V43h-8zM463 43l-17 44h9l4-10h18l4 10h9l-17-44h-10zm-1 26l6-17 6 17h-12zM538 43h-9v44h28v-9h-19zM581 76c-3 0-6 2-6 5s3 6 6 6 6-3 6-6-3-5-6-5z">
            </path>

        </g>
    </svg>