<?xml version="1.0" standalone="no"?>
<!DOCTYPE svg PUBLIC "-//W3C//DTD SVG 20010904//EN"
 "http://www.w3.org/TR/2001/REC-SVG-20010904/DTD/svg10.dtd">
<svg version="1.0" xmlns="http://www.w3.org/2000/svg"
 width="597.000000pt" height="597.000000pt" viewBox="0 0 597.000000 597.000000"
 preserveAspectRatio="xMidYMid meet">
<metadata>
Created by potrace 1.15, written by Peter Selinger 2001-2017
</metadata>
<g transform="translate(0.000000,597.000000) scale(0.100000,-0.100000)"
fill="#000000" stroke="none">
<path d="M1788 4960 c-118 -19 -328 -89 -328 -110 0 -4 13 -10 29 -13 39 -8
88 -51 103 -92 6 -19 16 -35 21 -35 5 0 42 12 81 26 97 36 259 44 370 20 94
-21 233 -89 302 -148 115 -98 208 -246 238 -378 20 -87 20 -255 1 -337 -84
-357 -446 -601 -801 -539 -307 53 -535 274 -594 574 -24 119 15 333 72 405
l23 28 60 -51 c32 -27 62 -50 66 -50 36 0 59 127 59 322 0 145 -3 148 -116
148 -85 0 -292 -17 -330 -26 -13 -3 -26 -15 -30 -27 -5 -16 6 -32 56 -76 l63
-56 -21 -40 c-33 -67 -80 -209 -96 -295 -53 -276 46 -581 254 -790 285 -284
707 -350 1060 -164 417 220 599 718 420 1148 -110 264 -343 464 -624 536 -87
22 -259 32 -338 20z"/>
<path d="M3347 4700 c-40 -31 -47 -77 -47 -291 0 -188 1 -198 23 -230 39 -57
106 -76 166 -44 54 27 61 62 61 284 0 217 -7 253 -51 285 -34 24 -119 21 -152
-4z"/>
<path d="M2850 4479 c0 -6 13 -48 30 -95 47 -134 63 -241 57 -374 -3 -63 -13
-140 -21 -171 -8 -30 -16 -62 -18 -70 -3 -12 72 -14 505 -17 l507 -2 0 -788
c0 -521 -4 -800 -11 -825 -7 -26 -21 -44 -42 -58 -31 -19 -57 -19 -1170 -17
l-1139 3 -29 33 -29 32 0 498 0 497 -57 30 c-31 17 -83 49 -115 73 -32 23 -63
42 -68 42 -8 0 -10 -182 -8 -577 l3 -578 23 -57 c31 -76 108 -160 180 -195
l57 -28 1190 0 1190 0 61 28 c76 35 135 94 171 172 l28 60 0 1060 0 1060 -27
57 c-35 76 -95 138 -165 173 -51 26 -71 30 -169 33 l-112 4 -4 -153 c-3 -119
-8 -161 -21 -185 -46 -87 -113 -133 -207 -141 -99 -9 -198 51 -238 146 -10 24
-16 86 -20 189 l-5 152 -163 0 c-111 0 -164 -4 -164 -11z"/>
<path d="M2080 4335 c-139 -130 -159 -144 -191 -145 -50 0 -101 -37 -117 -84
-15 -45 -2 -109 30 -142 16 -18 22 -49 35 -180 8 -88 19 -164 25 -171 16 -20
72 -16 93 7 14 16 20 48 27 172 7 116 14 163 29 194 10 22 19 55 19 72 0 27
23 59 140 194 137 159 155 189 128 216 -32 32 -61 14 -218 -133z"/>
<path d="M2820 3393 l0 -123 120 0 120 0 0 83 c0 45 3 99 6 119 l6 37 -126 3
-126 3 0 -122z"/>
<path d="M3300 3390 l0 -120 125 0 125 0 0 120 0 120 -125 0 -125 0 0 -120z"/>
<path d="M1850 2905 l0 -125 119 0 c66 0 122 3 124 8 3 4 2 60 0 125 l-6 117
-118 0 -119 0 0 -125z"/>
<path d="M2334 3017 c-2 -7 -3 -62 -2 -123 l3 -109 120 0 120 0 3 123 3 122
-121 0 c-90 0 -122 -3 -126 -13z"/>
<path d="M2820 2905 l0 -125 119 0 c66 0 122 3 124 8 3 4 2 60 0 125 l-6 117
-118 0 -119 0 0 -125z"/>
<path d="M3304 3017 c-2 -7 -3 -62 -2 -123 l3 -109 120 0 120 0 3 123 3 122
-121 0 c-90 0 -122 -3 -126 -13z"/>
<path d="M1850 2423 l0 -123 120 0 120 0 0 83 c0 45 3 99 6 119 l6 37 -126 3
-126 3 0 -122z"/>
<path d="M2820 2423 l0 -123 120 0 120 0 0 83 c0 45 3 99 6 119 l6 37 -126 3
-126 3 0 -122z"/>
<path d="M2330 2420 l0 -120 125 0 125 0 0 120 0 120 -125 0 -125 0 0 -120z"/>
<path d="M3300 2420 l0 -120 125 0 125 0 0 120 0 120 -125 0 -125 0 0 -120z"/>
<path d="M661 1239 c-56 -11 -124 -51 -154 -92 -37 -49 -50 -101 -44 -174 4
-52 11 -72 34 -101 44 -54 78 -70 229 -107 173 -43 198 -57 202 -113 5 -70
-45 -102 -160 -102 -85 0 -158 49 -158 106 0 23 -3 24 -80 24 l-80 0 0 -37 c1
-86 75 -176 174 -210 63 -22 232 -24 291 -4 57 20 120 65 144 105 47 76 45
198 -5 263 -36 47 -83 68 -244 107 -78 20 -153 42 -166 51 -51 33 -39 102 25
135 84 42 199 13 229 -60 l17 -40 79 0 79 0 -7 41 c-26 161 -197 249 -405 208z"/>
<path d="M4450 830 l0 -400 75 0 75 0 0 400 0 400 -75 0 -75 0 0 -400z"/>
<path d="M1820 825 l0 -395 75 0 75 0 0 180 c0 194 10 245 53 273 60 38 126
26 151 -28 13 -27 16 -71 16 -229 l0 -196 80 0 80 0 -1 203 c0 294 -10 329
-99 375 -59 30 -154 30 -211 2 -22 -12 -42 -27 -46 -35 -15 -41 -23 -2 -23
115 l0 130 -75 0 -75 0 0 -395z"/>
<path d="M3480 1088 l0 -131 -22 20 c-41 37 -85 53 -145 53 -155 -1 -246 -117
-247 -316 -1 -84 2 -95 34 -160 41 -80 99 -127 174 -138 64 -10 147 15 179 54
l26 30 3 -32 3 -33 73 -3 72 -3 0 396 0 395 -75 0 -75 0 0 -132z m-69 -211
c48 -32 69 -79 69 -157 0 -108 -51 -176 -130 -174 -51 2 -88 26 -107 72 -39
94 -17 217 46 259 43 29 79 29 122 0z"/>
<path d="M1341 1017 c-55 -21 -112 -76 -140 -136 -23 -49 -26 -69 -26 -161 0
-99 2 -110 32 -171 41 -83 86 -116 177 -132 125 -21 232 21 288 113 15 25 30
62 34 83 l6 37 -81 0 c-70 0 -81 -2 -81 -17 0 -10 -9 -32 -20 -50 -38 -63
-138 -52 -177 19 -25 45 -25 189 0 235 37 70 116 86 168 34 16 -16 29 -37 29
-45 0 -13 14 -16 80 -16 88 0 87 -1 69 65 -15 55 -52 101 -102 127 -51 27
-202 35 -256 15z"/>
<path d="M2595 1006 c-84 -39 -128 -102 -147 -215 -9 -56 -9 -86 0 -142 19
-112 56 -163 147 -205 138 -63 290 -27 366 86 47 70 42 80 -45 80 -71 0 -75
-1 -109 -35 -28 -28 -43 -35 -73 -35 -68 0 -117 41 -130 108 l-6 32 201 0 201
0 0 52 c0 93 -28 166 -84 224 -59 60 -97 74 -201 74 -52 0 -83 -6 -120 -24z
m193 -122 c26 -17 56 -79 47 -94 -7 -12 -222 -13 -229 -2 -2 4 4 27 14 50 31
68 104 88 168 46z"/>
<path d="M4855 1006 c-84 -39 -128 -102 -147 -215 -9 -56 -9 -86 0 -142 19
-112 56 -163 147 -205 138 -63 290 -27 366 86 47 70 42 80 -45 80 -71 0 -75
-1 -109 -35 -28 -28 -43 -35 -73 -35 -68 0 -117 41 -130 108 l-6 32 201 0 201
0 0 52 c0 93 -28 166 -84 224 -59 60 -97 74 -201 74 -52 0 -83 -6 -120 -24z
m193 -122 c26 -17 56 -79 47 -94 -7 -12 -222 -13 -229 -2 -2 4 4 27 14 50 31
68 104 88 168 46z"/>
<path d="M3770 803 c0 -121 5 -235 11 -256 14 -51 63 -104 107 -117 87 -24
167 -8 230 44 l32 28 0 -36 0 -36 75 0 75 0 0 295 0 295 -80 0 -80 0 0 -185
c0 -200 -7 -238 -51 -269 -31 -21 -101 -21 -128 2 -33 26 -40 79 -41 275 l0
177 -75 0 -75 0 0 -217z"/>
</g>
</svg>
