<svg version="1.0" xmlns="http://www.w3.org/2000/svg" viewBox="0 0 765.000000 763.000000"
      preserveAspectRatio="xMidYMid meet">
      <title>Strength</title>
      <metadata>
        Created by potrace 1.15, written by Peter Selinger 2001-2017
      </metadata>
      <g transform="translate(0.000000,763.000000) scale(0.100000,-0.100000)" fill="#000000" stroke="none">
        <path d="M2274 6885 c-175 -38 -339 -189 -395 -365 -19 -57 -22 -97 -26 -338
l-6 -272 -31 19 c-111 68 -296 66 -405 -4 -60 -38 -128 -117 -157 -178 -35
-77 -43 -153 -44 -392 l0 -201 -71 4 c-115 7 -210 -45 -262 -142 -22 -40 -22
-47 -22 -521 0 -476 0 -480 22 -521 46 -87 126 -142 218 -151 29 -3 67 -1 84
5 l31 11 0 -202 c1 -327 19 -402 122 -507 127 -129 335 -158 484 -69 l32 19 5
-267 c3 -148 10 -288 17 -313 48 -193 225 -362 418 -400 243 -48 483 72 597
297 54 108 55 123 55 955 l0 766 50 -19 c48 -18 88 -19 850 -19 760 0 802 1
850 19 l49 19 3 -797 3 -796 23 -64 c57 -157 181 -285 331 -342 36 -13 90 -23
151 -26 163 -9 286 36 406 150 75 71 131 163 154 257 7 25 14 165 17 313 l5
267 32 -19 c142 -86 353 -60 473 57 112 109 124 152 130 469 l5 251 30 -10
c41 -14 127 -4 176 21 50 26 97 72 125 125 22 40 22 48 25 500 3 517 2 523
-70 602 -56 61 -123 87 -215 82 l-73 -3 0 200 c-1 239 -9 315 -44 392 -29 61
-97 140 -157 178 -109 70 -294 72 -405 4 l-31 -19 -6 272 c-5 310 -13 352 -87
465 -121 184 -325 277 -541 245 -211 -30 -400 -209 -444 -419 -12 -56 -15
-206 -15 -820 0 -414 -1 -753 -2 -753 -2 0 -21 7 -43 15 -60 21 -1650 21
-1710 0 -22 -8 -41 -15 -42 -15 -2 0 -3 339 -3 753 0 835 0 832 -65 956 -40
76 -140 180 -215 224 -104 60 -256 80 -386 52z m198 -166 c76 -16 124 -44 188
-108 39 -38 64 -75 81 -116 l24 -60 0 -1940 0 -1940 -23 -58 c-33 -81 -114
-166 -194 -203 -55 -25 -74 -29 -154 -29 -82 1 -98 4 -156 33 -78 38 -139 101
-176 180 l-27 57 -3 1947 c-2 1940 -2 1947 18 2001 44 116 146 206 263 232 79
17 94 17 159 4z m2891 -4 c121 -26 222 -113 267 -232 20 -54 20 -61 18 -2001
l-3 -1947 -27 -57 c-54 -116 -149 -188 -276 -210 -125 -21 -234 15 -321 107
-65 69 -89 120 -102 213 -6 51 -9 721 -7 1962 l3 1885 23 57 c45 111 157 204
272 227 64 13 77 12 153 -4z m-3643 -935 c42 -22 81 -62 106 -110 18 -33 19
-84 22 -1139 2 -731 -1 -1122 -8 -1160 -41 -222 -337 -260 -431 -56 -18 38
-19 96 -19 1178 0 1246 -3 1176 58 1240 70 74 182 93 272 47z m4450 0 c46 -24
85 -66 104 -112 14 -33 16 -169 16 -1173 0 -1253 4 -1173 -63 -1244 -128 -134
-352 -66 -387 118 -13 70 -14 2163 0 2244 25 154 191 238 330 167z m-5007
-802 c47 -25 46 -19 47 -486 l0 -443 -25 -24 c-33 -34 -93 -34 -132 -1 l-28
24 -3 424 c-2 232 0 434 3 446 14 57 86 88 138 60z m5460 -12 c14 -13 29 -35
32 -48 3 -12 5 -214 3 -446 l-3 -424 -28 -24 c-39 -33 -99 -33 -132 1 l-25 24
0 443 c1 333 4 447 13 459 35 44 100 52 140 15z m-1957 -240 l34 -34 0 -184
c0 -204 -4 -218 -66 -244 -50 -21 -1538 -21 -1588 0 -62 26 -66 40 -66 244 l0
184 34 34 34 34 792 0 792 0 34 -34z" />
        <path d="M5760 1085 l0 -505 95 0 95 0 0 258 0 259 24 22 c30 29 103 39 146
21 56 -23 60 -43 60 -315 l0 -245 95 0 95 0 0 263 c0 302 -6 340 -67 400 -42
42 -84 57 -166 57 -66 0 -120 -19 -159 -57 l-28 -27 0 187 0 187 -95 0 -95 0
0 -505z" />
        <path d="M1569 1540 c-105 -19 -191 -76 -231 -155 -30 -58 -28 -146 5 -212 42
-82 103 -123 269 -182 151 -53 193 -81 204 -138 18 -95 -86 -154 -215 -123
-60 14 -106 60 -117 115 l-6 35 -94 0 -94 0 0 -37 c0 -82 68 -176 160 -223
115 -58 297 -65 408 -15 64 29 124 85 144 133 17 44 14 162 -7 202 -41 82
-133 148 -277 198 -158 56 -208 91 -208 148 0 32 32 74 66 89 52 22 142 19
181 -5 32 -19 63 -66 63 -95 0 -12 16 -15 95 -15 l95 0 0 33 c0 86 -85 189
-189 228 -63 23 -180 33 -252 19z" />
        <path d="M2178 1378 l-3 -83 -52 -3 -53 -3 0 -65 0 -64 49 0 49 0 4 -222 c3
-210 4 -226 27 -271 31 -65 82 -91 171 -91 36 0 77 3 93 7 26 7 27 9 27 77 l0
70 -45 0 c-32 0 -51 6 -65 20 -19 19 -20 31 -18 213 l3 192 58 3 57 3 0 64 0
64 -57 3 -58 3 -3 83 -3 82 -89 0 -89 0 -3 -82z" />
        <path d="M5348 1378 l-3 -83 -52 -3 -53 -3 0 -65 0 -64 55 0 55 0 0 -223 c0
-211 1 -225 23 -267 40 -80 124 -112 236 -90 29 5 55 10 57 10 2 0 4 32 4 70
l0 70 -49 0 c-81 0 -81 1 -81 231 l0 199 60 0 60 0 0 65 0 65 -60 0 -60 0 0
85 0 85 -95 0 -94 0 -3 -82z" />
        <path d="M2873 1299 c-18 -5 -49 -25 -68 -45 l-35 -35 0 36 0 35 -90 0 -90 0
0 -355 0 -355 95 0 95 0 0 238 c0 234 0 239 23 260 32 30 70 42 133 42 l54 0
0 89 c0 84 -1 89 -22 95 -30 8 -56 6 -95 -5z" />
        <path d="M4113 1301 c-39 -10 -123 -59 -123 -71 0 -6 -4 -10 -10 -10 -5 0 -10
16 -10 35 l0 35 -95 0 -95 0 0 -350 0 -350 100 0 100 0 0 253 0 254 25 23 c19
18 40 25 83 28 51 4 62 1 88 -21 l29 -25 3 -256 3 -256 94 0 95 0 0 265 c0
240 -2 269 -20 318 -20 53 -54 94 -97 116 -29 15 -130 22 -170 12z" />
        <path d="M3257 1286 c-87 -32 -146 -88 -189 -182 -20 -42 -23 -66 -23 -169 0
-102 3 -127 22 -167 30 -66 92 -129 160 -164 52 -26 67 -29 153 -29 118 1 183
21 245 78 l46 42 -46 53 -47 52 -34 -29 c-74 -65 -196 -67 -257 -4 -29 31 -60
97 -50 107 4 3 105 6 226 6 l220 0 -5 98 c-4 78 -10 108 -32 154 -54 115 -140
168 -271 167 -44 0 -97 -6 -118 -13z m184 -153 c17 -10 35 -34 45 -60 27 -70
22 -73 -120 -73 -69 0 -127 3 -129 8 -8 11 19 81 40 104 36 41 114 51 164 21z" />
        <path d="M4685 1280 c-58 -30 -89 -64 -127 -139 -33 -65 -33 -67 -33 -206 0
-135 1 -142 30 -198 78 -156 242 -211 376 -128 l52 32 -7 -47 c-12 -90 -72
-144 -160 -144 -47 0 -116 26 -147 56 l-26 25 -41 -59 -41 -59 27 -26 c15 -14
50 -36 77 -49 43 -20 66 -23 165 -23 107 0 119 2 170 28 69 36 101 65 131 125
24 47 24 47 27 435 l3 387 -86 0 -85 0 0 -30 c0 -16 -3 -30 -6 -30 -3 0 -23
15 -46 33 -37 30 -46 32 -127 35 -70 2 -93 -2 -126 -18z m265 -165 l30 -29 0
-151 0 -151 -31 -30 c-26 -25 -38 -29 -89 -29 -48 0 -63 4 -86 25 -70 65 -89
214 -40 314 32 66 70 88 139 83 36 -3 55 -11 77 -32z" />
      </g>
    </svg>