 <svg version="1.0" xmlns="http://www.w3.org/2000/svg" viewBox="0 0 765.000000 767.000000"
      preserveAspectRatio="xMidYMid meet">
      <title>toning</title>
      <metadata>
        Created by potrace 1.15, written by Peter Selinger 2001-2017
      </metadata>
      <g transform="translate(0.000000,767.000000) scale(0.100000,-0.100000)" fill="#000000" stroke="none">
        <path d="M4732 6587 c-19 -20 -22 -35 -22 -98 0 -231 -35 -507 -95 -751 -58
-237 -66 -330 -40 -471 26 -151 110 -276 236 -354 l57 -35 9 -76 c13 -121 9
-711 -6 -852 -27 -263 -60 -365 -221 -685 -176 -349 -228 -511 -250 -790 -11
-135 -4 -175 36 -194 36 -16 50 -14 78 12 23 20 26 32 35 158 20 270 67 422
228 737 63 123 123 247 134 275 97 241 136 562 125 1022 -4 154 -9 299 -12
321 l-6 42 44 -5 c23 -2 178 11 344 30 l300 35 300 -34 c215 -25 320 -33 372
-28 l73 6 -6 -34 c-23 -122 -20 -666 4 -873 35 -296 75 -420 241 -749 171
-339 210 -463 231 -736 10 -133 13 -147 36 -167 27 -26 41 -28 77 -12 44 20
50 55 37 207 -23 272 -75 438 -246 777 -164 326 -199 439 -226 730 -18 191
-18 670 0 805 l14 105 72 68 c123 114 174 243 175 433 0 103 -8 152 -56 354
-53 217 -75 380 -83 609 -7 197 -8 204 -30 222 -22 18 -41 19 -259 17 l-235
-3 -18 -25 c-15 -20 -24 -82 -48 -305 l-29 -280 -81 -77 c-105 -100 -187 -141
-288 -146 -48 -3 -88 1 -118 12 -88 29 -205 129 -269 228 -13 21 -27 98 -51
290 -32 253 -34 263 -60 285 -25 22 -31 23 -254 23 -225 0 -228 0 -249 -23z
m1835 -197 c7 -210 43 -458 99 -684 42 -165 55 -337 34 -427 -29 -121 -91
-197 -205 -250 -94 -45 -148 -45 -487 -5 l-296 35 -299 -35 c-341 -40 -393
-40 -486 4 -126 59 -185 143 -208 296 -14 96 -2 201 47 399 54 221 93 515 94
705 l0 32 130 0 c72 0 130 -3 131 -7 0 -5 15 -110 33 -235 l32 -227 48 -71
c67 -97 181 -202 270 -245 226 -112 442 -52 672 186 81 85 72 50 104 374 12
116 23 216 26 223 3 10 34 12 131 10 l128 -3 2 -75z" />
        <path d="M638 6274 c-37 -20 -42 -48 -28 -151 52 -368 237 -619 505 -686 83
-21 456 -30 720 -18 267 12 326 28 463 127 22 16 24 16 50 -9 35 -33 114 -72
188 -93 127 -35 846 -40 979 -7 137 34 274 134 359 262 78 116 138 296 152
456 5 60 4 73 -12 92 -29 34 -66 39 -98 11 -21 -19 -28 -37 -36 -98 -47 -345
-200 -548 -445 -591 -96 -17 -772 -6 -845 13 -101 27 -167 72 -188 128 -5 13
-7 119 -4 236 l5 212 -26 26 c-34 34 -79 35 -112 1 l-25 -24 0 -223 c0 -254
-3 -265 -82 -312 -94 -55 -146 -60 -578 -61 l-395 0 -67 27 c-197 79 -320 268
-358 553 -13 95 -21 114 -57 133 -27 15 -32 15 -65 -4z" />
        <path d="M1285 5933 c-78 -19 -95 -132 -25 -168 36 -19 54 -19 89 0 64 33 62
128 -3 159 -19 9 -36 15 -38 15 -1 -1 -12 -4 -23 -6z" />
        <path d="M3270 5929 c-28 -10 -60 -56 -60 -86 0 -10 9 -32 19 -50 47 -77 171
-35 171 58 0 26 -61 89 -86 88 -11 0 -30 -5 -44 -10z" />
        <path d="M1434 5082 c-80 -28 -127 -72 -164 -154 -19 -42 -20 -72 -20 -1212 0
-1159 0 -1170 20 -1212 39 -80 170 -174 243 -174 37 0 77 40 77 78 0 34 -27
61 -88 87 -24 10 -56 34 -72 52 l-30 34 0 1137 c0 889 3 1142 13 1162 15 31
73 70 102 70 38 0 75 37 75 76 0 70 -56 90 -156 56z" />
        <path d="M3065 5075 c-49 -48 -18 -115 60 -129 55 -11 93 -40 105 -84 6 -24
10 -419 10 -1155 l0 -1117 -24 -38 c-24 -38 -35 -45 -118 -81 -34 -14 -49 -27
-54 -45 -18 -72 40 -118 115 -93 103 36 198 124 221 205 6 24 10 422 10 1162
0 911 -3 1136 -14 1183 -24 101 -91 172 -192 203 -66 20 -91 18 -119 -11z" />
        <path d="M2264 4979 c-17 -19 -19 -42 -22 -280 l-3 -259 -319 0 -319 0 -20
-26 c-34 -43 -24 -86 26 -112 15 -8 114 -12 327 -12 l306 0 0 -270 0 -270
-295 0 c-197 0 -302 -4 -319 -11 -51 -23 -55 -103 -7 -128 13 -7 128 -11 320
-11 l301 0 0 -275 0 -275 -313 0 -314 0 -21 -23 c-27 -29 -28 -67 -3 -98 l19
-24 315 -3 316 -3 3 -250 c3 -250 3 -251 27 -270 28 -23 69 -24 99 -3 22 15
22 18 22 269 l0 254 316 3 316 3 19 24 c26 32 24 73 -4 99 -22 21 -31 22 -332
24 l-310 3 0 270 0 270 315 3 c306 2 315 3 337 24 38 35 29 89 -18 113 -23 12
-85 15 -334 15 l-305 0 0 270 0 270 295 0 c311 0 334 3 354 47 15 34 14 47
-10 77 l-20 26 -307 2 -307 3 -3 259 c-2 224 -5 262 -19 278 -23 26 -85 24
-109 -3z" />
        <path d="M5690 4710 c-19 -19 -20 -33 -20 -300 l0 -280 -145 0 c-81 0 -154 -5
-168 -11 -33 -15 -49 -46 -42 -80 12 -53 33 -59 202 -59 l153 0 0 -180 0 -180
-159 0 -160 0 -20 -26 c-24 -30 -26 -43 -10 -77 18 -40 50 -47 204 -47 l145 0
0 -429 c0 -237 -3 -432 -8 -434 -4 -3 -72 -1 -152 4 -152 9 -230 26 -273 59
-34 27 -78 26 -105 -3 -46 -49 -12 -117 76 -155 97 -42 202 -52 532 -52 330 0
435 10 532 52 87 37 124 112 78 158 -27 27 -62 25 -108 -4 -49 -32 -160 -53
-302 -58 l-115 -3 -3 433 -2 432 144 0 c155 0 187 7 205 47 16 34 14 47 -10
77 l-20 26 -160 0 -159 0 0 180 0 180 153 0 c167 0 190 6 200 57 7 38 -11 70
-46 83 -16 5 -92 10 -168 10 l-139 0 0 278 c0 266 -1 279 -20 300 -27 29 -83
29 -110 2z" />
        <path d="M4111 1584 c-26 -21 -31 -33 -31 -69 0 -36 5 -48 31 -69 44 -38 106
-36 148 3 95 88 -49 219 -148 135z" />
        <path d="M1830 1500 l0 -79 143 -3 142 -3 3 -397 2 -398 95 0 95 0 0 400 0
400 145 0 145 0 0 80 0 80 -385 0 -385 0 0 -80z" />
        <path d="M4753 1341 c-39 -10 -123 -59 -123 -71 0 -6 -4 -10 -10 -10 -5 0 -10
16 -10 35 l0 35 -95 0 -95 0 0 -350 0 -350 100 0 100 0 0 253 0 254 25 23 c19
18 40 25 83 28 51 4 62 1 88 -21 l29 -25 3 -256 3 -256 94 0 95 0 0 265 c0
240 -2 269 -20 318 -20 53 -54 94 -97 116 -29 15 -130 22 -170 12z" />
        <path d="M2725 1311 c-74 -35 -116 -78 -152 -156 -26 -55 -28 -70 -28 -180 0
-109 2 -125 27 -177 31 -66 91 -128 156 -160 68 -33 214 -33 289 1 58 26 121
87 152 150 33 64 47 176 33 266 -20 125 -74 204 -174 254 -55 28 -71 31 -152
31 -80 0 -98 -4 -151 -29z m223 -141 c50 -31 72 -88 72 -190 0 -70 -4 -94 -22
-130 -31 -59 -68 -85 -123 -85 -88 0 -137 69 -143 201 -7 140 47 224 143 224
23 0 54 -9 73 -20z" />
        <path d="M3605 1326 c-16 -7 -44 -25 -61 -39 -35 -30 -44 -27 -44 15 l0 28
-90 0 -90 0 0 -350 0 -350 95 0 95 0 0 246 c0 149 4 253 10 265 33 60 164 66
207 10 9 -12 12 -86 13 -268 l0 -253 101 0 101 0 -5 268 c-3 182 -8 279 -17
304 -18 51 -67 108 -106 124 -42 18 -169 17 -209 0z" />
        <path d="M5323 1315 c-58 -29 -92 -69 -131 -153 -25 -53 -27 -67 -27 -187 0
-127 1 -132 33 -197 78 -159 237 -214 373 -129 l52 32 -7 -47 c-12 -90 -72
-144 -160 -144 -47 0 -116 26 -147 56 l-26 25 -41 -59 -41 -59 27 -26 c15 -14
50 -36 77 -49 43 -20 66 -23 165 -23 107 0 119 2 170 28 75 39 98 62 131 132
l29 60 0 378 0 377 -85 0 -85 0 0 -30 0 -30 -46 33 c-41 29 -54 32 -127 35
-72 3 -88 0 -134 -23z m247 -142 c47 -32 49 -40 50 -199 l0 -150 -31 -30 c-26
-25 -38 -29 -89 -29 -51 0 -63 4 -89 29 -96 92 -74 342 34 386 34 15 99 11
125 -7z" />
        <path d="M4090 975 l0 -355 95 0 95 0 0 355 0 355 -95 0 -95 0 0 -355z" />
      </g>
    </svg>