<!-- Generated by IcoMoon.io -->
<svg version="1.1" xmlns="http://www.w3.org/2000/svg" width="32" height="32" viewBox="0 0 32 32">
<title>Cardio</title>
<path d="M11.261 2.835c-1.191 0.172-1.82 0.377-2.672 0.864-0.73 0.411-1.501 1.103-2.013 1.795-1.43 1.929-1.665 4.513-0.604 6.626 0.193 0.382 0.419 0.747 0.654 1.057l0.147 0.193 0.461 0.025c0.256 0.013 1.292 0.042 2.307 0.067s1.98 0.055 2.143 0.067l0.302 0.025 0.080-0.226c0.046-0.122 0.6-1.72 1.229-3.544 0.633-1.829 1.153-3.322 1.158-3.313 0.004 0.004 0.52 2.131 1.145 4.727s1.149 4.752 1.17 4.794c0.021 0.050 0.323-0.73 0.994-2.55 0.528-1.443 0.969-2.621 0.981-2.621 0.013 0.004 0.294 0.566 0.621 1.25l0.6 1.246h6.010l0.264-0.377c0.482-0.688 0.826-1.476 0.981-2.252 0.306-1.493 0.113-2.94-0.562-4.253-1.015-1.959-2.764-3.204-4.961-3.536-0.637-0.096-1.791-0.038-2.403 0.117-0.944 0.247-1.938 0.738-2.579 1.283-0.352 0.294-0.344 0.294-0.629 0.059-0.86-0.717-2.001-1.25-3.083-1.443-0.382-0.067-1.476-0.117-1.74-0.080z"></path>
<path d="M14.188 9.483c-0.071 0.193-0.474 1.359-0.898 2.588l-0.772 2.235-0.503-0.025c-0.696-0.034-3.46-0.105-4.039-0.105h-0.47l2.34 2.336c2.24 2.231 2.923 2.94 5.389 5.536l1.082 1.141 1.288-1.309c0.709-0.721 2.395-2.433 3.741-3.804 1.35-1.371 2.789-2.831 3.204-3.238l0.751-0.747h-5.784l-0.34-0.692c-0.189-0.382-0.348-0.679-0.361-0.663-0.008 0.017-0.495 1.35-1.082 2.957-0.587 1.61-1.074 2.927-1.086 2.927-0.017 0-0.533-2.101-1.149-4.668-0.621-2.563-1.141-4.701-1.158-4.743-0.021-0.063-0.059 0.004-0.155 0.273z"></path>
<path d="M18.579 26.074c0 0.705-0.004 0.734-0.076 0.671-0.323-0.294-1.044-0.26-1.355 0.067-0.298 0.31-0.415 0.663-0.415 1.246 0 0.793 0.285 1.334 0.793 1.506 0.331 0.109 0.793 0.017 0.986-0.201 0.113-0.126 0.151-0.109 0.151 0.059v0.151l0.734-0.025 0.013-2.11 0.008-2.105h-0.839v0.742zM18.365 27.236c0.226 0.117 0.256 0.218 0.256 0.847 0 0.637-0.038 0.751-0.294 0.856-0.159 0.067-0.44 0.029-0.554-0.071-0.222-0.197-0.323-0.809-0.206-1.254 0.042-0.159 0.21-0.361 0.34-0.407 0.122-0.042 0.34-0.029 0.457 0.029z"></path>
<path d="M20.207 25.483c-0.239 0.126-0.273 0.411-0.080 0.608 0.101 0.101 0.159 0.122 0.319 0.122s0.218-0.021 0.319-0.122c0.197-0.201 0.159-0.486-0.088-0.612-0.151-0.080-0.323-0.080-0.47 0.004z"></path>
<path d="M9.252 25.566c-0.39 0.122-0.768 0.428-0.939 0.751-0.206 0.398-0.306 1.174-0.222 1.749 0.088 0.625 0.445 1.17 0.906 1.397 0.277 0.138 0.872 0.189 1.183 0.105 0.612-0.168 1.036-0.604 1.128-1.166l0.029-0.176h-0.851v0.122c0 0.138-0.138 0.357-0.306 0.482-0.096 0.071-0.18 0.088-0.445 0.088-0.289 0-0.34-0.013-0.478-0.113-0.096-0.080-0.18-0.197-0.247-0.357-0.084-0.218-0.096-0.315-0.096-0.893 0-0.591 0.008-0.671 0.096-0.86 0.176-0.377 0.382-0.524 0.751-0.524 0.289 0 0.528 0.13 0.633 0.348 0.050 0.096 0.101 0.226 0.113 0.289l0.021 0.117h0.805l-0.029-0.201c-0.071-0.478-0.428-0.923-0.885-1.099-0.323-0.126-0.872-0.151-1.166-0.059z"></path>
<path d="M12.741 26.552c-0.31 0.046-0.486 0.122-0.684 0.294-0.159 0.138-0.31 0.411-0.315 0.549 0 0.067 0.046 0.076 0.394 0.076h0.394l0.042-0.122c0.046-0.126 0.235-0.256 0.377-0.256 0.277 0 0.47 0.193 0.47 0.474v0.143l-0.407 0.021c-0.658 0.038-1.049 0.222-1.225 0.591-0.235 0.482 0.013 1.040 0.537 1.229 0.327 0.117 0.826 0.034 1.057-0.176 0.063-0.059 0.075-0.050 0.117 0.071 0.046 0.134 0.046 0.134 0.264 0.105 0.122-0.013 0.294-0.025 0.386-0.025 0.155 0 0.159-0.004 0.13-0.117-0.017-0.063-0.042-0.575-0.059-1.141-0.025-0.948-0.038-1.040-0.122-1.204-0.214-0.411-0.734-0.608-1.359-0.512zM13.421 28.477c0 0.302-0.092 0.428-0.377 0.503-0.315 0.084-0.541-0.055-0.541-0.336-0.004-0.289 0.185-0.411 0.637-0.415l0.281-0.004v0.252z"></path>
<path d="M16 26.569c-0.092 0.034-0.218 0.117-0.281 0.189-0.101 0.109-0.117 0.113-0.117 0.046 0-0.197-0.029-0.214-0.424-0.214h-0.373l0.008 1.476 0.013 1.48h0.797l0.013-0.981c0.008-0.864 0.017-0.994 0.084-1.065 0.109-0.126 0.319-0.197 0.575-0.197h0.231v-0.747l-0.13-0.025c-0.176-0.034-0.197-0.034-0.394 0.038z"></path>
<path d="M22.165 26.669c-0.31 0.147-0.482 0.327-0.637 0.654-0.109 0.235-0.117 0.289-0.117 0.776 0 0.491 0.008 0.537 0.113 0.742 0.361 0.679 1.149 0.944 1.858 0.625 0.461-0.206 0.705-0.554 0.784-1.111 0.109-0.788-0.18-1.43-0.776-1.707-0.18-0.084-0.285-0.101-0.596-0.101-0.331 0-0.411 0.017-0.629 0.122zM23.113 27.273c0.193 0.13 0.285 0.382 0.285 0.809 0.004 0.596-0.26 0.939-0.675 0.885-0.344-0.046-0.533-0.365-0.537-0.889 0-0.398 0.126-0.73 0.323-0.835 0.176-0.096 0.436-0.084 0.604 0.029z"></path>
<path d="M20.047 28.079v1.489h0.797v-2.978h-0.797v1.489z"></path>
</svg>
