<!-- Generated by IcoMoon.io -->
<svg version="1.1" xmlns="http://www.w3.org/2000/svg" width="32" height="32" viewBox="0 0 32 32">
<title>core</title>
<path d="M8.696 3.112c-0.158 0.1-0.279 0.196-0.271 0.212s0.188 0.375 0.396 0.8c0.75 1.529 1.175 2.929 1.308 4.333 0.083 0.904-0.008 1.979-0.233 2.654-0.142 0.412-0.592 1.338-1.137 2.338-0.954 1.729-1.454 3.037-1.796 4.675-0.313 1.512-0.35 2.967-0.104 4.233 0.088 0.45 0.096 0.458 0.296 0.404 0.088-0.029 0.237-0.067 0.329-0.092l0.171-0.046-0.054-0.242c-0.246-1.029-0.237-2.538 0.017-3.863l0.075-0.375 0.25 0.008c0.304 0.012 1.642 0.254 2.329 0.421 2.55 0.625 4.317 1.654 5.079 2.954 0.083 0.146 0.162 0.262 0.171 0.262s0.083-0.033 0.167-0.071c0.137-0.067 0.154-0.067 0.3 0.004 0.121 0.058 0.158 0.063 0.183 0.017 0.021-0.029 0.108-0.175 0.192-0.325 0.225-0.387 0.858-1.008 1.392-1.363 0.938-0.621 2.258-1.154 3.75-1.508 0.533-0.125 2.033-0.396 2.462-0.438 0.271-0.029 0.246-0.067 0.346 0.475 0.242 1.313 0.246 2.788 0.004 3.8l-0.054 0.242 0.171 0.046c0.092 0.025 0.242 0.063 0.329 0.092 0.2 0.054 0.208 0.046 0.296-0.404 0.113-0.587 0.15-1.025 0.15-1.754 0.004-1.3-0.183-2.467-0.604-3.833-0.396-1.271-0.712-1.996-1.563-3.542-0.758-1.379-1.063-2.092-1.188-2.792-0.321-1.825 0.117-4.042 1.262-6.354 0.196-0.4 0.358-0.746 0.363-0.767 0-0.021-0.125-0.121-0.283-0.221l-0.279-0.179-0.083 0.133c-0.333 0.542-0.883 1.758-1.137 2.537-0.5 1.496-0.688 2.638-0.642 3.933 0.038 1.125 0.208 1.804 0.7 2.779 0.092 0.183 0.163 0.338 0.154 0.346-0.038 0.033-0.4 0.2-0.804 0.375-2.863 1.225-5.667 1.463-8.583 0.729-0.925-0.233-2.563-0.871-2.563-1 0-0.025 0.083-0.213 0.188-0.417 0.321-0.633 0.471-1.054 0.592-1.608 0.104-0.5 0.113-0.608 0.113-1.517 0-0.825-0.012-1.063-0.092-1.517-0.179-1.042-0.492-2.096-0.912-3.088-0.238-0.563-0.729-1.55-0.817-1.629-0.037-0.038-0.121-0.004-0.333 0.138zM22.3 13.383c0.192 0.296 0.867 1.625 1.075 2.108 0.233 0.558 0.625 1.692 0.625 1.817 0 0.038-0.050 0.071-0.133 0.083-3.992 0.554-6.642 1.658-7.863 3.283l-0.179 0.238-0.183-0.242c-0.279-0.371-0.842-0.883-1.338-1.212-1.354-0.908-3.167-1.529-5.596-1.925-0.446-0.071-0.817-0.133-0.821-0.137-0.046-0.021 0.421-1.354 0.692-1.996 0.192-0.438 0.921-1.867 1.004-1.954 0.017-0.021 0.075-0.008 0.129 0.029 0.4 0.258 2.075 0.854 2.996 1.063 1.154 0.258 1.646 0.313 3 0.313 1.063 0 1.313-0.008 1.854-0.092 1.45-0.217 3.058-0.696 4.25-1.279 0.208-0.1 0.387-0.183 0.4-0.183 0.017-0.004 0.054 0.037 0.087 0.088z"></path>
<path d="M15.637 11.625c-0.292 0.067-0.363 0.279-0.129 0.4 0.196 0.1 0.604 0.063 0.708-0.067 0.092-0.113 0.083-0.158-0.054-0.254-0.125-0.088-0.35-0.121-0.525-0.079z"></path>
<path d="M11.479 25.387c-0.604 0.2-0.958 0.592-1.125 1.242-0.054 0.208-0.067 0.404-0.054 0.892l0.012 0.625 0.175 0.358c0.333 0.679 0.821 0.954 1.621 0.904 0.708-0.046 1.313-0.563 1.383-1.183l0.021-0.183h-0.796l-0.029 0.133c-0.079 0.367-0.354 0.571-0.762 0.575-0.396 0-0.613-0.179-0.758-0.642-0.033-0.1-0.050-0.392-0.050-0.75 0-0.492 0.017-0.625 0.088-0.821 0.142-0.375 0.367-0.538 0.746-0.538 0.4 0.004 0.675 0.225 0.738 0.592l0.029 0.158h0.783v-0.137c-0.004-0.188-0.167-0.571-0.338-0.775-0.092-0.113-0.25-0.229-0.45-0.325-0.275-0.142-0.342-0.154-0.688-0.167-0.233-0.008-0.442 0.008-0.546 0.042z"></path>
<path d="M18.346 26.379c-0.075 0.021-0.204 0.104-0.283 0.188l-0.146 0.146v-0.296h-0.75v2.958h0.792v-0.992c0-0.975 0-0.996 0.096-1.083 0.133-0.125 0.292-0.175 0.554-0.175h0.225v-0.371c0-0.35-0.004-0.371-0.092-0.396-0.125-0.033-0.233-0.025-0.396 0.021z"></path>
<path d="M14.779 26.433c-0.379 0.137-0.642 0.408-0.804 0.837-0.058 0.158-0.079 0.317-0.079 0.646 0 0.383 0.012 0.467 0.108 0.667 0.154 0.325 0.35 0.538 0.633 0.671 0.817 0.383 1.725 0 1.971-0.833 0.1-0.337 0.067-1.004-0.067-1.275-0.146-0.3-0.363-0.517-0.646-0.654-0.217-0.1-0.3-0.117-0.604-0.117-0.196 0.004-0.425 0.029-0.512 0.058zM15.667 27.158c0.121 0.121 0.167 0.208 0.208 0.404 0.092 0.446-0.033 0.971-0.267 1.125-0.175 0.117-0.438 0.125-0.6 0.021-0.412-0.254-0.454-1.242-0.071-1.579 0.125-0.108 0.183-0.129 0.363-0.129 0.188 0 0.225 0.017 0.367 0.158z"></path>
<path d="M19.946 26.433c-0.567 0.208-0.854 0.654-0.892 1.383-0.038 0.642 0.142 1.042 0.613 1.358 0.396 0.262 0.95 0.313 1.462 0.121 0.212-0.079 0.554-0.354 0.529-0.421-0.008-0.017-0.092-0.117-0.188-0.225l-0.179-0.188-0.108 0.1c-0.258 0.238-0.767 0.296-1.017 0.113-0.146-0.108-0.292-0.333-0.292-0.45v-0.1h1.842l-0.017-0.408c-0.012-0.321-0.038-0.45-0.125-0.637-0.121-0.271-0.325-0.488-0.558-0.6-0.212-0.104-0.842-0.129-1.071-0.046zM20.704 27.063c0.133 0.067 0.267 0.313 0.246 0.45-0.012 0.087-0.033 0.092-0.542 0.104-0.521 0.012-0.533 0.008-0.533-0.079 0-0.15 0.133-0.375 0.267-0.458 0.154-0.096 0.4-0.1 0.563-0.017z"></path>
</svg>
