<!-- Generated by IcoMoon.io -->
<svg version="1.1" xmlns="http://www.w3.org/2000/svg" width="32" height="32" viewBox="0 0 32 32">
<title>Nutrition</title>
<path d="M19.072 3.403c-0.075 0.011-0.363 0.091-0.641 0.176-1.619 0.481-2.949 1.271-3.483 2.083l-0.085 0.134-0.198-0.24c-0.305-0.358-1.202-1.229-1.357-1.304-0.283-0.139-0.646 0.101-0.646 0.427 0 0.048 0.321 0.406 0.711 0.796 0.385 0.385 0.86 0.919 1.047 1.181 0.443 0.62 0.871 1.469 0.988 1.961l0.037 0.15-0.203-0.107c-0.385-0.192-1.336-0.486-1.779-0.545-0.609-0.085-1.528-0.032-2.057 0.112-0.903 0.246-1.731 0.748-2.463 1.507-0.668 0.689-0.988 1.287-1.255 2.34-0.556 2.206 0.085 5.342 1.533 7.517 0.39 0.582 1.357 1.565 1.88 1.902 0.54 0.358 1.17 0.62 1.768 0.743 0.748 0.155 1.816 0.112 2.489-0.096 0.598-0.187 0.737-0.187 1.336 0 0.593 0.182 1.597 0.246 2.254 0.139 1.122-0.176 2.169-0.759 3.093-1.72 0.486-0.502 0.737-0.849 1.159-1.597 0.983-1.731 1.485-3.916 1.325-5.764-0.144-1.603-0.604-2.687-1.506-3.558-0.855-0.817-1.576-1.223-2.639-1.469-0.438-0.096-0.609-0.112-1.218-0.085-0.817 0.032-1.426 0.176-2.201 0.524-0.262 0.118-0.508 0.23-0.54 0.24-0.032 0.016-0.075-0.043-0.091-0.128s-0.048-0.219-0.064-0.288c-0.032-0.128-0.021-0.134 0.315-0.166 0.817-0.075 1.875-0.727 2.997-1.843 1.378-1.362 1.699-2.495 0.828-2.938-0.198-0.096-0.315-0.118-0.721-0.112-0.262 0.005-0.54 0.021-0.614 0.032zM20.007 4.365c-0.107 0.454-1.138 1.64-1.955 2.254-0.759 0.577-1.565 0.892-1.918 0.764-0.123-0.043-0.107-0.064 0.288-0.31 1.127-0.716 1.074-0.668 1.090-0.914 0.011-0.171-0.011-0.246-0.102-0.331-0.219-0.203-0.406-0.15-1.149 0.31-0.379 0.235-0.694 0.417-0.705 0.406-0.059-0.053 0.128-0.422 0.315-0.636 0.678-0.769 2.714-1.667 3.836-1.683l0.337-0.005-0.037 0.144zM13.462 9.007c0.743 0.139 1.453 0.427 2.148 0.876 0.39 0.256 0.449 0.251 0.924-0.053 2.073-1.336 4.258-1.17 5.882 0.449 0.572 0.572 0.849 1.068 1.068 1.929 0.171 0.662 0.235 1.987 0.134 2.767-0.385 2.917-1.993 5.433-3.953 6.197-1.020 0.395-1.971 0.395-3.168-0.011l-0.459-0.155-0.524 0.182c-1.084 0.379-1.816 0.427-2.693 0.182-1.982-0.556-3.702-2.853-4.284-5.716-0.107-0.529-0.123-0.775-0.123-1.763 0-1.031 0.011-1.197 0.123-1.629 0.069-0.267 0.235-0.705 0.369-0.983 0.401-0.833 1.277-1.635 2.222-2.025 0.769-0.321 1.528-0.401 2.335-0.246z"></path>
<path d="M10.289 11.064c-0.684 0.764-1.052 2.319-0.892 3.761 0.091 0.801 0.315 1.677 0.465 1.827 0.166 0.166 0.417 0.16 0.582-0.011 0.155-0.15 0.166-0.321 0.053-0.7-0.256-0.881-0.321-2.27-0.134-3.056 0.123-0.508 0.299-0.881 0.593-1.271 0.235-0.304 0.256-0.475 0.096-0.684-0.085-0.107-0.155-0.139-0.315-0.139-0.176 0-0.235 0.037-0.449 0.272z"></path>
<path d="M4.033 25.392c-0.016 0.032-0.021 0.978-0.016 2.094l0.016 2.030 0.828 0.032 0.011-1.458 0.016-1.458 0.828 1.442 0.833 1.442 0.876 0.032v-4.226h-0.801l-0.011 1.426-0.016 1.432-0.817-1.432-0.817-1.426h-0.454c-0.315 0-0.459 0.021-0.475 0.069z"></path>
<path d="M15.973 25.696v0.374h0.801v-0.748h-0.801v0.374z"></path>
<path d="M19.499 25.696v0.374h0.855v-0.748h-0.855v0.374z"></path>
<path d="M11.86 26.017v0.427h-0.427v0.588h0.427v1.042c0 0.812 0.016 1.079 0.080 1.197 0.118 0.23 0.534 0.353 0.999 0.294l0.256-0.037v-0.572h-0.214c-0.305 0-0.326-0.075-0.31-1.052l0.016-0.844 0.508-0.032v-0.582h-0.534v-0.855h-0.801v0.427z"></path>
<path d="M17.683 26.017v0.427h-0.427v0.588h0.427v1.042c0 0.812 0.016 1.079 0.080 1.197 0.118 0.23 0.534 0.353 0.999 0.294l0.256-0.037v-0.572h-0.214c-0.305 0-0.326-0.075-0.31-1.052l0.016-0.844 0.508-0.032v-0.582h-0.534v-0.855h-0.801v0.427z"></path>
<path d="M14.98 26.439c-0.118 0.053-0.283 0.182-0.358 0.278l-0.144 0.182v-0.454h-0.801v3.099h0.785l0.027-0.924c0.027-1.015 0.075-1.197 0.363-1.346 0.085-0.043 0.262-0.080 0.401-0.080h0.24v-0.855h-0.144c-0.085 0-0.246 0.048-0.369 0.102z"></path>
<path d="M21.909 26.417c-0.299 0.096-0.657 0.443-0.817 0.796-0.102 0.224-0.123 0.363-0.123 0.78 0.005 0.614 0.134 0.956 0.475 1.271 0.299 0.278 0.55 0.358 1.101 0.358 0.39 0 0.497-0.021 0.759-0.15 0.529-0.256 0.791-0.748 0.791-1.48 0-0.769-0.326-1.336-0.887-1.544-0.342-0.134-0.935-0.144-1.298-0.032zM22.865 27.112c0.235 0.123 0.374 0.438 0.374 0.855 0 0.588-0.224 0.924-0.652 0.972-0.182 0.021-0.267 0-0.417-0.102-0.246-0.166-0.337-0.369-0.363-0.801-0.037-0.604 0.24-0.999 0.7-1.004 0.112 0 0.272 0.037 0.358 0.080z"></path>
<path d="M26.027 26.412c-0.096 0.032-0.262 0.144-0.363 0.24l-0.182 0.182v-0.39h-0.801v3.099h0.855v-0.988c0-1.111 0.043-1.298 0.315-1.437 0.283-0.15 0.63-0.080 0.748 0.15 0.037 0.069 0.064 0.529 0.075 1.181l0.011 1.068 0.828 0.032v-1.218c0-1.352-0.043-1.544-0.353-1.763-0.305-0.219-0.785-0.283-1.133-0.155z"></path>
<path d="M8.174 27.577c0 0.63 0.027 1.229 0.059 1.341 0.075 0.278 0.321 0.54 0.572 0.614 0.454 0.139 0.94 0.048 1.207-0.219l0.134-0.134 0.016 0.171 0.016 0.166 0.775 0.032v-3.104h-0.801v0.903c0 1.063-0.021 1.186-0.219 1.4-0.134 0.144-0.176 0.16-0.427 0.144-0.23-0.011-0.294-0.043-0.39-0.166-0.101-0.134-0.112-0.235-0.128-1.213l-0.021-1.068h-0.791v1.133z"></path>
<path d="M15.973 27.993v1.549h0.801v-3.099h-0.801v1.549z"></path>
<path d="M19.51 27.977l0.016 1.539 0.828 0.032v-3.104h-0.855l0.011 1.533z"></path>
</svg>
