<!-- Generated by IcoMoon.io -->
<svg version="1.1" xmlns="http://www.w3.org/2000/svg" width="32" height="32" viewBox="0 0 32 32">
<title>Toning</title>
<path d="M19.742 4.518c-0.079 0.083-0.092 0.146-0.092 0.409 0 0.964-0.146 2.115-0.396 3.133-0.242 0.989-0.275 1.377-0.167 1.965 0.108 0.63 0.459 1.152 0.985 1.477l0.238 0.146 0.038 0.317c0.054 0.505 0.038 2.966-0.025 3.555-0.113 1.097-0.25 1.523-0.922 2.858-0.734 1.456-0.951 2.132-1.043 3.296-0.046 0.563-0.017 0.73 0.15 0.809 0.15 0.067 0.209 0.058 0.325-0.050 0.096-0.083 0.108-0.134 0.146-0.659 0.083-1.126 0.28-1.761 0.951-3.075 0.263-0.513 0.513-1.030 0.559-1.147 0.405-1.005 0.567-2.345 0.521-4.264-0.017-0.643-0.038-1.247-0.050-1.339l-0.025-0.175 0.184 0.021c0.096 0.008 0.743-0.046 1.435-0.125l1.252-0.146 1.252 0.142c0.897 0.104 1.335 0.138 1.552 0.117l0.305-0.025-0.025 0.142c-0.096 0.509-0.083 2.779 0.017 3.642 0.146 1.235 0.313 1.752 1.005 3.125 0.713 1.414 0.876 1.932 0.964 3.071 0.042 0.555 0.054 0.613 0.15 0.697 0.113 0.108 0.171 0.117 0.321 0.050 0.184-0.083 0.209-0.229 0.154-0.864-0.096-1.135-0.313-1.827-1.026-3.242-0.684-1.36-0.83-1.832-0.943-3.046-0.075-0.797-0.075-2.795 0-3.359l0.058-0.438 0.3-0.284c0.513-0.476 0.726-1.014 0.73-1.807 0-0.43-0.033-0.634-0.234-1.477-0.221-0.905-0.313-1.585-0.346-2.541-0.029-0.822-0.033-0.851-0.125-0.926s-0.171-0.079-1.081-0.071l-0.98 0.013-0.075 0.104c-0.063 0.083-0.1 0.342-0.2 1.272l-0.121 1.168-0.338 0.321c-0.438 0.417-0.78 0.588-1.202 0.609-0.2 0.013-0.367-0.004-0.492-0.050-0.367-0.121-0.855-0.538-1.122-0.951-0.054-0.088-0.113-0.409-0.213-1.21-0.134-1.056-0.142-1.097-0.25-1.189-0.104-0.092-0.129-0.096-1.060-0.096-0.939 0-0.951 0-1.039 0.096zM27.398 5.34c0.029 0.876 0.179 1.911 0.413 2.854 0.175 0.688 0.229 1.406 0.142 1.781-0.121 0.505-0.38 0.822-0.855 1.043-0.392 0.188-0.617 0.188-2.032 0.021l-1.235-0.146-1.247 0.146c-1.423 0.167-1.64 0.167-2.028-0.017-0.526-0.246-0.772-0.597-0.868-1.235-0.058-0.401-0.008-0.839 0.196-1.665 0.225-0.922 0.388-2.149 0.392-2.941v-0.133h0.542c0.3 0 0.542 0.013 0.547 0.029 0 0.021 0.063 0.459 0.138 0.98l0.134 0.947 0.2 0.296c0.28 0.405 0.755 0.843 1.126 1.022 0.943 0.467 1.844 0.217 2.804-0.776 0.338-0.355 0.3-0.209 0.434-1.56 0.050-0.484 0.096-0.901 0.108-0.93 0.013-0.042 0.142-0.050 0.547-0.042l0.534 0.013 0.008 0.313z"></path>
<path d="M2.662 5.824c-0.154 0.083-0.175 0.2-0.117 0.63 0.217 1.535 0.989 2.583 2.107 2.862 0.346 0.088 1.902 0.125 3.004 0.075 1.114-0.050 1.36-0.117 1.932-0.53 0.092-0.067 0.1-0.067 0.209 0.038 0.146 0.138 0.476 0.3 0.784 0.388 0.53 0.146 3.53 0.167 4.085 0.029 0.572-0.142 1.143-0.559 1.498-1.093 0.325-0.484 0.576-1.235 0.634-1.902 0.021-0.25 0.017-0.305-0.050-0.384-0.121-0.142-0.275-0.163-0.409-0.046-0.088 0.079-0.117 0.154-0.15 0.409-0.196 1.439-0.834 2.286-1.857 2.466-0.401 0.071-3.221 0.025-3.525-0.054-0.421-0.113-0.697-0.3-0.784-0.534-0.021-0.054-0.029-0.496-0.017-0.985l0.021-0.885-0.108-0.108c-0.142-0.142-0.33-0.146-0.467-0.004l-0.104 0.1v0.93c0 1.060-0.013 1.106-0.342 1.302-0.392 0.229-0.609 0.25-2.411 0.255h-1.648l-0.28-0.113c-0.822-0.33-1.335-1.118-1.494-2.307-0.054-0.396-0.088-0.476-0.238-0.555-0.113-0.063-0.134-0.063-0.271 0.017z"></path>
<path d="M5.361 7.247c-0.325 0.079-0.396 0.551-0.104 0.701 0.15 0.079 0.225 0.079 0.371 0 0.267-0.138 0.259-0.534-0.013-0.663-0.079-0.038-0.15-0.063-0.159-0.063-0.004 0.004-0.050 0.017-0.096 0.025z"></path>
<path d="M13.643 7.264c-0.117 0.042-0.25 0.234-0.25 0.359 0 0.042 0.038 0.133 0.079 0.209 0.196 0.321 0.713 0.146 0.713-0.242 0-0.108-0.255-0.371-0.359-0.367-0.046 0-0.125 0.021-0.184 0.042z"></path>
<path d="M5.983 10.797c-0.334 0.117-0.53 0.3-0.684 0.643-0.079 0.175-0.083 0.3-0.083 5.057 0 4.835 0 4.881 0.083 5.057 0.163 0.334 0.709 0.726 1.014 0.726 0.154 0 0.321-0.167 0.321-0.325 0-0.142-0.113-0.255-0.367-0.363-0.1-0.042-0.234-0.142-0.3-0.217l-0.125-0.142v-4.744c0-3.709 0.013-4.765 0.054-4.848 0.063-0.129 0.305-0.292 0.426-0.292 0.159 0 0.313-0.154 0.313-0.317 0-0.292-0.234-0.376-0.651-0.234z"></path>
<path d="M12.787 10.827c-0.204 0.2-0.075 0.48 0.25 0.538 0.229 0.046 0.388 0.167 0.438 0.35 0.025 0.1 0.042 1.748 0.042 4.819v4.66l-0.1 0.159c-0.1 0.159-0.146 0.188-0.492 0.338-0.142 0.058-0.204 0.113-0.225 0.188-0.075 0.3 0.167 0.492 0.48 0.388 0.43-0.15 0.826-0.517 0.922-0.855 0.025-0.1 0.042-1.761 0.042-4.848 0-3.801-0.013-4.739-0.058-4.936-0.1-0.421-0.38-0.718-0.801-0.847-0.275-0.083-0.38-0.075-0.496 0.046z"></path>
<path d="M9.446 11.227c-0.071 0.079-0.079 0.175-0.092 1.168l-0.013 1.081h-2.662l-0.083 0.108c-0.142 0.179-0.1 0.359 0.108 0.467 0.063 0.033 0.476 0.050 1.364 0.050h1.277v2.253h-1.231c-0.822 0-1.26 0.017-1.331 0.046-0.213 0.096-0.229 0.43-0.029 0.534 0.054 0.029 0.534 0.046 1.335 0.046h1.256v2.295h-2.616l-0.088 0.096c-0.113 0.121-0.117 0.28-0.013 0.409l0.079 0.1 2.633 0.025 0.013 1.043c0.013 1.043 0.013 1.047 0.113 1.126 0.117 0.096 0.288 0.1 0.413 0.013 0.092-0.063 0.092-0.075 0.092-1.122v-1.060l2.637-0.025 0.079-0.1c0.108-0.134 0.1-0.305-0.017-0.413-0.092-0.088-0.129-0.092-1.385-0.1l-1.293-0.013v-2.253l1.314-0.013c1.277-0.008 1.314-0.013 1.406-0.1 0.159-0.146 0.121-0.371-0.075-0.471-0.096-0.050-0.355-0.063-1.393-0.063h-1.272v-2.253h1.231c1.298 0 1.393-0.013 1.477-0.196 0.063-0.142 0.058-0.196-0.042-0.321l-0.083-0.108-1.281-0.008-1.281-0.013-0.013-1.081c-0.008-0.935-0.021-1.093-0.079-1.16-0.096-0.108-0.355-0.1-0.455 0.013z"></path>
<path d="M23.739 12.349c-0.079 0.079-0.083 0.138-0.083 1.252v1.168h-0.605c-0.338 0-0.642 0.021-0.701 0.046-0.138 0.063-0.204 0.192-0.175 0.334 0.050 0.221 0.138 0.246 0.843 0.246h0.638v1.502h-1.331l-0.083 0.108c-0.1 0.125-0.108 0.179-0.042 0.321 0.075 0.167 0.209 0.196 0.851 0.196h0.605v1.79c0 0.989-0.013 1.802-0.033 1.811-0.017 0.013-0.3 0.004-0.634-0.017-0.634-0.038-0.96-0.108-1.139-0.246-0.142-0.113-0.325-0.108-0.438 0.013-0.192 0.204-0.050 0.488 0.317 0.647 0.405 0.175 0.843 0.217 2.22 0.217s1.815-0.042 2.22-0.217c0.363-0.154 0.517-0.467 0.325-0.659-0.113-0.113-0.259-0.104-0.451 0.017-0.204 0.134-0.668 0.221-1.26 0.242l-0.48 0.013-0.013-1.807-0.008-1.802h0.601c0.647 0 0.78-0.029 0.855-0.196 0.067-0.142 0.058-0.196-0.042-0.321l-0.083-0.108h-1.331v-1.502h0.638c0.697 0 0.793-0.025 0.834-0.238 0.029-0.159-0.046-0.292-0.192-0.346-0.067-0.021-0.384-0.042-0.701-0.042h-0.58v-1.16c0-1.11-0.004-1.164-0.083-1.252-0.113-0.121-0.346-0.121-0.459-0.008z"></path>
<path d="M17.151 25.391c-0.108 0.088-0.129 0.138-0.129 0.288s0.021 0.2 0.129 0.288c0.184 0.159 0.442 0.15 0.617-0.013 0.396-0.367-0.204-0.914-0.617-0.563z"></path>
<path d="M7.635 25.742v0.33l1.189 0.025 0.013 1.656 0.008 1.66h0.793v-3.338h1.21v-0.668h-3.213v0.334z"></path>
<path d="M19.83 26.405c-0.163 0.042-0.513 0.246-0.513 0.296 0 0.025-0.017 0.042-0.042 0.042-0.021 0-0.042-0.067-0.042-0.146v-0.146h-0.793v2.92h0.834v-2.115l0.104-0.096c0.079-0.075 0.167-0.104 0.346-0.117 0.213-0.017 0.259-0.004 0.367 0.088l0.121 0.104 0.025 2.136h0.789v-1.106c0-1.001-0.008-1.122-0.083-1.327-0.083-0.221-0.225-0.392-0.405-0.484-0.121-0.063-0.542-0.092-0.709-0.050z"></path>
<path d="M11.369 26.53c-0.309 0.146-0.484 0.325-0.634 0.651-0.108 0.229-0.117 0.292-0.117 0.751 0 0.455 0.008 0.521 0.113 0.738 0.129 0.275 0.38 0.534 0.651 0.668 0.284 0.138 0.893 0.138 1.206-0.004 0.242-0.108 0.505-0.363 0.634-0.626 0.138-0.267 0.196-0.734 0.138-1.11-0.083-0.521-0.309-0.851-0.726-1.060-0.229-0.117-0.296-0.129-0.634-0.129-0.334 0-0.409 0.017-0.63 0.121zM12.299 27.119c0.209 0.129 0.3 0.367 0.3 0.793 0 0.292-0.017 0.392-0.092 0.542-0.129 0.246-0.284 0.355-0.513 0.355-0.367 0-0.572-0.288-0.597-0.839-0.029-0.584 0.196-0.935 0.597-0.935 0.096 0 0.225 0.038 0.305 0.083z"></path>
<path d="M15.040 26.468c-0.067 0.029-0.184 0.104-0.255 0.163-0.146 0.125-0.184 0.113-0.184-0.063v-0.117h-0.751v2.92h0.793v-1.026c0-0.622 0.017-1.056 0.042-1.106 0.138-0.25 0.684-0.275 0.864-0.042 0.038 0.050 0.050 0.359 0.054 1.118v1.056h0.843l-0.021-1.118c-0.013-0.759-0.033-1.164-0.071-1.268-0.075-0.213-0.28-0.451-0.442-0.517-0.175-0.075-0.705-0.071-0.872 0z"></path>
<path d="M22.208 26.514c-0.242 0.121-0.384 0.288-0.547 0.638-0.104 0.221-0.113 0.28-0.113 0.78 0 0.53 0.004 0.551 0.138 0.822 0.325 0.663 0.989 0.893 1.556 0.538l0.217-0.134-0.029 0.196c-0.050 0.375-0.3 0.601-0.668 0.601-0.196 0-0.484-0.108-0.613-0.234l-0.108-0.104-0.342 0.492 0.113 0.108c0.063 0.058 0.209 0.15 0.321 0.204 0.179 0.083 0.275 0.096 0.688 0.096 0.446 0 0.496-0.008 0.709-0.117 0.313-0.163 0.409-0.259 0.547-0.551l0.121-0.25v-3.15h-0.709v0.25l-0.192-0.138c-0.171-0.121-0.225-0.134-0.53-0.146-0.3-0.013-0.367 0-0.559 0.096zM23.239 27.106c0.196 0.134 0.204 0.167 0.209 0.83v0.626l-0.129 0.125c-0.108 0.104-0.159 0.121-0.371 0.121s-0.263-0.017-0.371-0.121c-0.401-0.384-0.309-1.427 0.142-1.61 0.142-0.063 0.413-0.046 0.521 0.029z"></path>
<path d="M17.064 27.932v1.481h0.793v-2.962h-0.793v1.481z"></path>
</svg>
