<!-- Generated by IcoMoon.io -->
<svg version="1.1" xmlns="http://www.w3.org/2000/svg" width="32" height="32" viewBox="0 0 32 32">
<title>Endurance</title>
<path d="M14.266 3.317c-0.054 0.075-0.067 0.235-0.067 0.859v0.766h-1.076c-0.595 0-1.206 0.021-1.361 0.042-0.561 0.080-1.005 0.406-1.24 0.913l-0.113 0.239-0.013 8.398c-0.008 7.87-0.004 8.402 0.063 8.448 0.054 0.042 1.248 0.054 5.629 0.054 5.014 0 5.566-0.008 5.625-0.067 0.063-0.059 0.067-0.854 0.059-8.448l-0.013-8.385-0.121-0.26c-0.218-0.473-0.687-0.813-1.227-0.892-0.155-0.021-0.779-0.042-1.382-0.042h-1.102v-0.787c0-0.712-0.008-0.8-0.075-0.859-0.071-0.063-0.256-0.071-1.801-0.071h-1.721l-0.063 0.092zM20.741 5.458c0.268 0.134 0.465 0.335 0.595 0.612l0.088 0.193 0.013 8.197 0.008 8.201h-10.723l0.008-8.201 0.013-8.197 0.088-0.188c0.176-0.377 0.49-0.637 0.859-0.708 0.101-0.021 2.128-0.034 4.498-0.034l4.314 0.008 0.239 0.117z"></path>
<path d="M11.233 9.198c-0.092 0.063-0.092 0.067-0.092 1.416 0 1.097 0.013 1.365 0.059 1.432 0.059 0.080 0.155 0.080 4.854 0.080 4 0 4.804-0.008 4.859-0.059 0.063-0.050 0.071-0.205 0.071-1.432 0-1.37 0-1.374-0.092-1.437-0.084-0.059-0.612-0.067-4.829-0.067s-4.746 0.008-4.829 0.067z"></path>
<path d="M11.309 12.57c-0.054 0.025-0.117 0.063-0.134 0.092s-0.034 0.645-0.034 1.374c0 1.076 0.013 1.336 0.059 1.403 0.059 0.080 0.155 0.080 4.854 0.080 4 0 4.804-0.008 4.859-0.059 0.063-0.050 0.071-0.205 0.071-1.428s-0.008-1.378-0.071-1.428c-0.054-0.050-0.859-0.059-4.783-0.067-3.053-0.004-4.754 0.008-4.821 0.034z"></path>
<path d="M11.351 15.946c-0.034 0.013-0.096 0.050-0.134 0.088-0.067 0.059-0.075 0.18-0.075 1.391 0 1.294 0 1.328 0.088 1.407 0.084 0.075 0.226 0.080 4.863 0.080h4.775l0.080-0.101c0.075-0.092 0.080-0.18 0.080-1.386s-0.004-1.294-0.080-1.386l-0.080-0.101-4.729-0.008c-2.597-0.004-4.754 0.004-4.787 0.017z"></path>
<path d="M11.309 19.355c-0.054 0.025-0.117 0.063-0.134 0.092s-0.034 0.645-0.034 1.374c0 1.076 0.013 1.336 0.059 1.403 0.059 0.080 0.155 0.080 4.854 0.080 4 0 4.804-0.008 4.859-0.059 0.063-0.050 0.071-0.205 0.071-1.428s-0.008-1.378-0.071-1.428c-0.054-0.050-0.859-0.059-4.783-0.067-3.053-0.004-4.754 0.008-4.821 0.034z"></path>
<path d="M11.225 26.061v0.758l-0.092-0.084c-0.18-0.163-0.356-0.222-0.645-0.222-0.477 0-0.787 0.214-1.018 0.708-0.101 0.218-0.109 0.281-0.109 0.8 0 0.524 0.008 0.582 0.113 0.804 0.243 0.519 0.544 0.746 0.997 0.746 0.247 0 0.599-0.134 0.712-0.272 0.059-0.071 0.063-0.067 0.084 0.067l0.021 0.142 0.733 0.025v-4.235h-0.796v0.762zM11.108 27.305c0.117 0.13 0.117 0.134 0.117 0.729 0 0.653-0.021 0.729-0.251 0.846-0.297 0.155-0.586 0.038-0.741-0.302-0.096-0.205-0.105-0.268-0.088-0.612 0.021-0.44 0.092-0.616 0.297-0.746s0.511-0.092 0.666 0.084z"></path>
<path d="M3.183 27.518v2.010h2.681v-0.67h-1.843v-1.089h1.592v-0.628h-1.592v-0.963h1.843v-0.67h-2.681v2.010z"></path>
<path d="M7.644 26.509c-0.176 0.046-0.364 0.147-0.457 0.251-0.096 0.109-0.151 0.080-0.151-0.084v-0.121h-0.754v2.932h0.796v-2.124l0.105-0.096c0.080-0.075 0.168-0.105 0.356-0.117 0.23-0.017 0.255-0.008 0.377 0.109l0.126 0.126v2.145h0.796v-1.135c0-0.733-0.017-1.194-0.046-1.298-0.059-0.193-0.255-0.436-0.419-0.519-0.142-0.075-0.553-0.113-0.729-0.067z"></path>
<path d="M16.942 26.534c-0.092 0.034-0.218 0.113-0.281 0.184-0.126 0.138-0.159 0.13-0.159-0.046v-0.117h-0.754v2.974h0.796v-1.956l0.117-0.117c0.147-0.151 0.26-0.188 0.536-0.188h0.226v-0.373c0-0.352-0.004-0.373-0.092-0.398-0.138-0.034-0.201-0.029-0.39 0.038z"></path>
<path d="M18.689 26.513c-0.494 0.075-0.913 0.402-0.959 0.75l-0.025 0.172h0.381c0.369 0 0.377-0.004 0.402-0.105 0.029-0.121 0.251-0.272 0.394-0.272 0.155 0 0.369 0.117 0.423 0.235 0.025 0.059 0.046 0.168 0.046 0.243v0.138l-0.444 0.025c-0.394 0.017-0.473 0.038-0.72 0.159-0.168 0.088-0.327 0.205-0.406 0.302-0.117 0.151-0.126 0.188-0.126 0.507 0 0.314 0.013 0.36 0.117 0.498 0.327 0.431 1.064 0.54 1.453 0.209 0.071-0.059 0.134-0.101 0.138-0.092 0.008 0.008 0.034 0.071 0.063 0.134l0.050 0.117 0.385-0.029c0.214-0.017 0.394-0.034 0.402-0.038 0.004-0.004-0.021-0.088-0.054-0.188-0.050-0.138-0.063-0.381-0.063-1.064 0-0.486-0.017-0.951-0.042-1.030-0.134-0.482-0.75-0.775-1.416-0.67zM19.351 28.394c0 0.314-0.021 0.36-0.18 0.461-0.348 0.209-0.741 0.084-0.741-0.239 0-0.314 0.214-0.448 0.746-0.465l0.176-0.004v0.247z"></path>
<path d="M22.086 26.509c-0.163 0.042-0.515 0.247-0.515 0.297 0 0.025-0.017 0.042-0.042 0.042-0.021 0-0.042-0.067-0.042-0.147v-0.147h-0.754v2.932h0.796v-1.039c0.004-0.75 0.017-1.051 0.054-1.097 0.163-0.209 0.498-0.272 0.741-0.147 0.18 0.092 0.209 0.264 0.209 1.328v0.955h0.758l-0.013-1.185c-0.013-1.060-0.021-1.198-0.092-1.328-0.101-0.188-0.226-0.327-0.369-0.402s-0.553-0.109-0.733-0.063z"></path>
<path d="M24.691 26.563c-0.335 0.121-0.595 0.352-0.767 0.683-0.105 0.197-0.113 0.243-0.113 0.775 0 0.649 0.054 0.817 0.352 1.143 0.26 0.281 0.503 0.385 0.905 0.385 0.44 0 0.691-0.075 0.926-0.285 0.209-0.184 0.327-0.39 0.364-0.628l0.025-0.155h-0.737l-0.038 0.13c-0.075 0.268-0.457 0.406-0.725 0.268-0.218-0.109-0.318-0.377-0.314-0.838 0.004-0.226 0.029-0.444 0.067-0.544 0.113-0.306 0.461-0.44 0.746-0.293 0.126 0.063 0.251 0.256 0.251 0.377 0 0.050 0.063 0.063 0.373 0.063h0.373l-0.021-0.18c-0.075-0.582-0.561-0.955-1.24-0.947-0.163 0-0.356 0.021-0.427 0.046z"></path>
<path d="M27.631 26.572c-0.616 0.222-0.938 0.792-0.901 1.587 0.029 0.616 0.272 1.014 0.775 1.269 0.222 0.109 0.281 0.121 0.662 0.121 0.364 0 0.448-0.017 0.649-0.109 0.247-0.113 0.503-0.31 0.503-0.381 0-0.025-0.075-0.134-0.172-0.247l-0.172-0.205-0.151 0.121c-0.377 0.293-0.821 0.281-1.106-0.021-0.105-0.113-0.201-0.302-0.201-0.398 0-0.021 0.39-0.038 0.947-0.038h0.947l-0.017-0.41c-0.013-0.331-0.038-0.448-0.13-0.645-0.235-0.482-0.591-0.704-1.139-0.699-0.184 0-0.406 0.025-0.494 0.054zM28.402 27.213c0.071 0.042 0.147 0.142 0.188 0.251 0.113 0.293 0.092 0.306-0.511 0.306h-0.532l0.025-0.147c0.029-0.176 0.172-0.39 0.297-0.44 0.147-0.059 0.402-0.046 0.532 0.029z"></path>
<path d="M12.607 27.661c0 1.194 0.017 1.311 0.23 1.596 0.302 0.39 0.976 0.427 1.432 0.080l0.138-0.105v0.256h0.796v-2.932h-0.838v1.068c0 1.047 0 1.068-0.092 1.152-0.151 0.138-0.381 0.188-0.582 0.13-0.272-0.084-0.289-0.163-0.289-1.345v-1.005h-0.796v1.106z"></path>
</svg>
