<!-- Generated by IcoMoon.io -->
<svg version="1.1" xmlns="http://www.w3.org/2000/svg" width="38" height="32" viewBox="0 0 38 32">
<title>london_home__logo</title>
<path d="M4.814 10.61v4.169h5.831v-1.492h-4.068v-6.847h-1.763v4.17z"></path>
<path d="M10.712 10.61v4.169h1.953c2.149 0 2.61-0.054 3.214-0.386 0.529-0.285 0.956-0.759 1.268-1.39 0.447-0.902 0.515-1.268 0.508-2.597 0-1.051-0.020-1.2-0.176-1.675-0.217-0.658-0.502-1.112-0.976-1.539-0.705-0.644-1.254-0.753-3.905-0.753h-1.885v4.17zM15.017 8.142c0.617 0.312 0.915 1.085 0.915 2.366 0 1.383-0.414 2.271-1.22 2.637-0.264 0.122-0.447 0.142-1.302 0.142h-1.003v-5.363l1.139 0.020c1.064 0.020 1.159 0.034 1.471 0.197z"></path>
<path d="M17.831 10.61v4.169h1.627l0.014-2.908 0.020-2.908 1.661 2.888 1.661 2.895 1.729 0.041v-8.346h-1.559v2.847c0 1.566-0.020 2.847-0.047 2.841-0.034 0-0.78-1.281-1.668-2.847l-1.614-2.841h-1.824v4.17z"></path>
<path d="M27.831 9.363c-0.895 0.746-1.681 1.458-1.742 1.573-0.108 0.19-0.122 0.42-0.122 1.864 0 1.878 0.034 2.054 0.434 2.217 0.156 0.068 0.475 0.102 0.936 0.102h0.698l0.712-0.603 0.712-0.597 1.417 1.2h0.603c0.732 0 1.139-0.095 1.349-0.319 0.156-0.163 0.156-0.19 0.176-1.912 0.014-1.058-0.007-1.817-0.047-1.925s-0.732-0.725-1.742-1.573c-0.922-0.766-1.695-1.39-1.715-1.39-0.027 0-0.773 0.61-1.668 1.363zM30.868 10.237l1.261 1.051 0.007 1.471v1.478h-1.024l-0.82-0.678c-0.454-0.373-0.841-0.678-0.868-0.678-0.020 0-0.407 0.305-0.847 0.678l-0.814 0.678h-0.983v-2.949l1.329-1.098c0.854-0.712 1.356-1.085 1.417-1.051 0.047 0.027 0.651 0.522 1.342 1.098z"></path>
<path d="M5.858 16.807c-0.685 0.169-0.908 0.549-0.908 1.586v0.725h-0.881v0.814h0.881v5.22h1.017v-5.22h0.949v-0.814h-0.963l0.020-0.57c0.034-0.719 0.129-0.854 0.617-0.854h0.325v-0.949l-0.42 0.007c-0.237 0.007-0.522 0.027-0.637 0.054z"></path>
<path d="M7.39 17.458v0.576h1.085v-1.153h-1.085v0.576z"></path>
<path d="M9.695 18.271v0.847h-0.814v0.814h0.807l0.020 2.217c0.020 2.149 0.027 2.237 0.169 2.536 0.203 0.4 0.481 0.536 1.092 0.536 0.739 0 0.759-0.014 0.759-0.481v-0.4h-0.325c-0.183 0-0.386-0.047-0.475-0.108-0.149-0.102-0.149-0.108-0.149-2.203v-2.095h0.949v-0.814h-0.949v-1.695h-1.085v0.847z"></path>
<path d="M25.641 18.99c-0.773 0.129-1.41 0.637-1.6 1.288-0.142 0.468-0.136 0.78 0.020 1.112 0.237 0.529 0.698 0.8 1.864 1.092 1.519 0.38 1.803 0.536 1.803 1.024 0 0.597-0.536 0.97-1.39 0.97-0.258 0-0.59-0.034-0.732-0.075-0.353-0.095-0.692-0.454-0.786-0.834l-0.075-0.312h-0.949v0.203c0 0.332 0.271 0.956 0.556 1.261 0.38 0.414 0.827 0.583 1.627 0.624 1.39 0.068 2.197-0.292 2.603-1.173 0.285-0.61 0.176-1.525-0.217-1.878-0.23-0.203-0.861-0.441-1.763-0.664-1.295-0.325-1.586-0.515-1.586-1.017 0-0.434 0.298-0.692 0.888-0.78 0.719-0.108 1.451 0.23 1.62 0.746l0.081 0.237h0.468c0.447 0 0.468-0.007 0.468-0.156 0-0.312-0.217-0.793-0.488-1.071-0.325-0.332-0.685-0.502-1.275-0.597-0.502-0.081-0.637-0.081-1.139 0z"></path>
<path d="M31.010 18.976c-1.2 0.19-1.939 1.125-1.715 2.176 0.149 0.678 0.631 0.99 2.129 1.383 1.41 0.366 1.614 0.488 1.607 0.997-0.007 0.563-0.454 0.888-1.295 0.929-0.278 0.020-0.624-0.007-0.78-0.054-0.454-0.129-0.854-0.59-0.854-0.983 0-0.169-0.007-0.169-0.515-0.169h-0.522l0.041 0.305c0.061 0.441 0.373 1.030 0.685 1.295 0.427 0.366 0.82 0.468 1.844 0.468 0.881 0 0.895 0 1.356-0.237 0.38-0.197 0.515-0.312 0.739-0.631l0.271-0.4v-0.664c0-0.644-0.007-0.671-0.21-0.922-0.285-0.359-0.664-0.529-1.851-0.841-0.563-0.142-1.105-0.312-1.214-0.366-0.563-0.292-0.556-1.010 0.014-1.308 0.136-0.075 0.386-0.115 0.685-0.115 0.793-0.007 1.295 0.271 1.424 0.793 0.047 0.176 0.068 0.183 0.522 0.183h0.481l-0.034-0.298c-0.075-0.644-0.617-1.234-1.302-1.43-0.454-0.129-1.078-0.169-1.505-0.108z"></path>
<path d="M14.373 19.098c-0.346 0.115-0.61 0.285-0.929 0.59l-0.224 0.203v-0.773h-0.949v6.034h1.010l0.020-2.054c0.020-1.844 0.034-2.068 0.149-2.285 0.319-0.603 0.8-0.902 1.464-0.908 0.536-0.007 0.8 0.129 1.030 0.529 0.156 0.271 0.156 0.312 0.176 2.495l0.020 2.224h1.017l-0.020-2.427c-0.020-2.359-0.027-2.427-0.176-2.759-0.21-0.461-0.447-0.685-0.875-0.847-0.447-0.169-1.268-0.176-1.715-0.020z"></path>
<path d="M19.783 19.112c-0.753 0.244-1.444 0.949-1.708 1.756-0.251 0.753-0.258 1.98-0.007 2.725 0.129 0.38 0.447 0.847 0.786 1.139 0.997 0.868 2.793 0.807 3.722-0.122 0.285-0.285 0.678-0.99 0.678-1.22 0-0.122-0.041-0.136-0.495-0.136h-0.495l-0.081 0.23c-0.129 0.346-0.603 0.773-0.99 0.888-0.427 0.129-0.671 0.129-1.098 0-0.583-0.169-1.010-0.786-1.092-1.566l-0.041-0.366h4.447l-0.047-0.651c-0.088-1.146-0.386-1.81-1.044-2.312-0.61-0.461-1.722-0.624-2.536-0.366zM21.403 20.027c0.393 0.19 0.651 0.508 0.807 1.030 0.183 0.617 0.312 0.57-1.566 0.57-1.898 0-1.783 0.054-1.519-0.644 0.359-0.956 1.369-1.376 2.278-0.956z"></path>
<path d="M7.39 22.136v3.017h1.085v-6.034h-1.085v3.017z"></path>
</svg>
