<!-- Generated by IcoMoon.io -->
<svg version="1.1" xmlns="http://www.w3.org/2000/svg" width="32" height="32" viewBox="0 0 32 32">
<title>Schedule</title>
<path d="M9.584 5.414c-0.633 0.102-1.758 0.477-1.758 0.59 0 0.021 0.070 0.054 0.155 0.070 0.209 0.043 0.472 0.273 0.552 0.493 0.032 0.102 0.086 0.188 0.113 0.188s0.225-0.064 0.434-0.139c0.52-0.193 1.388-0.236 1.983-0.107 0.504 0.113 1.249 0.477 1.619 0.793 0.616 0.525 1.115 1.319 1.276 2.026 0.107 0.466 0.107 1.367 0.005 1.806-0.45 1.914-2.391 3.221-4.293 2.889-1.646-0.284-2.868-1.469-3.184-3.077-0.129-0.638 0.080-1.785 0.386-2.171l0.123-0.15 0.322 0.273c0.172 0.145 0.332 0.268 0.354 0.268 0.193 0 0.316-0.681 0.316-1.726 0-0.777-0.016-0.793-0.622-0.793-0.456 0-1.565 0.091-1.769 0.139-0.070 0.016-0.139 0.080-0.161 0.145-0.027 0.086 0.032 0.172 0.3 0.407l0.338 0.3-0.113 0.214c-0.177 0.359-0.429 1.12-0.515 1.581-0.284 1.479 0.247 3.114 1.361 4.235 1.528 1.522 3.79 1.876 5.682 0.879 2.235-1.179 3.211-3.849 2.251-6.153-0.59-1.415-1.839-2.487-3.345-2.873-0.466-0.118-1.388-0.172-1.812-0.107z"></path>
<path d="M17.94 6.807c-0.214 0.166-0.252 0.413-0.252 1.56 0 1.008 0.005 1.061 0.123 1.233 0.209 0.306 0.568 0.407 0.89 0.236 0.289-0.145 0.327-0.332 0.327-1.522 0-1.163-0.038-1.356-0.273-1.528-0.182-0.129-0.638-0.113-0.815 0.021z"></path>
<path d="M15.276 7.992c0 0.032 0.070 0.257 0.161 0.509 0.252 0.718 0.338 1.292 0.306 2.005-0.016 0.338-0.070 0.75-0.113 0.917-0.043 0.161-0.086 0.332-0.096 0.375-0.016 0.064 0.386 0.075 2.707 0.091l2.718 0.011v4.224c0 2.793-0.021 4.288-0.059 4.422-0.038 0.139-0.113 0.236-0.225 0.311-0.166 0.102-0.306 0.102-6.271 0.091l-6.105-0.016-0.155-0.177-0.155-0.172v-5.333l-0.306-0.161c-0.166-0.091-0.445-0.263-0.616-0.391-0.172-0.123-0.338-0.225-0.364-0.225-0.043 0-0.054 0.976-0.043 3.093l0.016 3.098 0.123 0.306c0.166 0.407 0.579 0.858 0.965 1.045l0.306 0.15h12.757l0.327-0.15c0.407-0.188 0.724-0.504 0.917-0.922l0.15-0.322v-11.363l-0.145-0.306c-0.188-0.407-0.509-0.74-0.884-0.927-0.273-0.139-0.381-0.161-0.906-0.177l-0.6-0.021-0.021 0.82c-0.016 0.638-0.043 0.863-0.113 0.992-0.247 0.466-0.606 0.713-1.11 0.756-0.531 0.048-1.061-0.273-1.276-0.783-0.054-0.129-0.086-0.461-0.107-1.013l-0.027-0.815h-0.874c-0.595 0-0.879 0.021-0.879 0.059z"></path>
<path d="M11.149 8.764c-0.745 0.697-0.852 0.772-1.024 0.777-0.268 0-0.541 0.198-0.627 0.45-0.080 0.241-0.011 0.584 0.161 0.761 0.086 0.096 0.118 0.263 0.188 0.965 0.043 0.472 0.102 0.879 0.134 0.917 0.086 0.107 0.386 0.086 0.498-0.038 0.075-0.086 0.107-0.257 0.145-0.922 0.038-0.622 0.075-0.874 0.155-1.040 0.054-0.118 0.102-0.295 0.102-0.386 0-0.145 0.123-0.316 0.75-1.040 0.734-0.852 0.831-1.013 0.686-1.158-0.172-0.172-0.327-0.075-1.168 0.713z"></path>
<path d="M15.116 13.813v0.659h1.286v-0.445c0-0.241 0.016-0.531 0.032-0.638l0.032-0.198-1.351-0.032v0.654z"></path>
<path d="M17.688 13.829v0.643h1.34v-1.286h-1.34v0.643z"></path>
<path d="M9.916 16.429v0.67h0.638c0.354 0 0.654-0.016 0.665-0.043 0.016-0.021 0.011-0.322 0-0.67l-0.032-0.627h-1.27v0.67z"></path>
<path d="M12.511 15.828c-0.011 0.038-0.016 0.332-0.011 0.659l0.016 0.584h1.286l0.016-0.659 0.016-0.654h-0.649c-0.482 0-0.654 0.016-0.675 0.070z"></path>
<path d="M15.116 16.429v0.67h0.638c0.354 0 0.654-0.016 0.665-0.043 0.016-0.021 0.011-0.322 0-0.67l-0.032-0.627h-1.27v0.67z"></path>
<path d="M17.71 15.828c-0.011 0.038-0.016 0.332-0.011 0.659l0.016 0.584h1.286l0.016-0.659 0.016-0.654h-0.649c-0.482 0-0.654 0.016-0.675 0.070z"></path>
<path d="M9.916 19.012v0.659h1.286v-0.445c0-0.241 0.016-0.531 0.032-0.638l0.032-0.198-1.351-0.032v0.654z"></path>
<path d="M15.116 19.012v0.659h1.286v-0.445c0-0.241 0.016-0.531 0.032-0.638l0.032-0.198-1.351-0.032v0.654z"></path>
<path d="M12.489 19.028v0.643h1.34v-1.286h-1.34v0.643z"></path>
<path d="M17.688 19.028v0.643h1.34v-1.286h-1.34v0.643z"></path>
<path d="M3.543 25.359c-0.3 0.059-0.665 0.273-0.825 0.493-0.198 0.263-0.268 0.541-0.236 0.933 0.021 0.279 0.059 0.386 0.182 0.541 0.236 0.289 0.418 0.375 1.227 0.574 0.927 0.23 1.061 0.306 1.083 0.606 0.027 0.375-0.241 0.547-0.858 0.547-0.456 0-0.847-0.263-0.847-0.568 0-0.123-0.016-0.129-0.429-0.129h-0.429v0.198c0.005 0.461 0.402 0.943 0.933 1.126 0.338 0.118 1.244 0.129 1.56 0.021 0.306-0.107 0.643-0.348 0.772-0.563 0.252-0.407 0.241-1.061-0.027-1.41-0.193-0.252-0.445-0.364-1.308-0.574-0.418-0.107-0.82-0.225-0.89-0.273-0.273-0.177-0.209-0.547 0.134-0.724 0.45-0.225 1.067-0.070 1.227 0.322l0.091 0.214h0.847l-0.038-0.22c-0.139-0.863-1.056-1.335-2.171-1.115z"></path>
<path d="M23.853 27.551v2.144h0.804v-4.288h-0.804v2.144z"></path>
<path d="M9.755 27.578v2.117h0.804v-0.965c0-1.040 0.054-1.313 0.284-1.463 0.322-0.204 0.675-0.139 0.809 0.15 0.070 0.145 0.086 0.381 0.086 1.227v1.051h0.858l-0.005-1.088c0-1.576-0.054-1.763-0.531-2.010-0.316-0.161-0.825-0.161-1.131-0.011-0.118 0.064-0.225 0.145-0.247 0.188-0.080 0.22-0.123 0.011-0.123-0.616v-0.697h-0.804v2.117z"></path>
<path d="M18.653 26.168v0.702l-0.118-0.107c-0.22-0.198-0.456-0.284-0.777-0.284-0.831 0.005-1.319 0.627-1.324 1.694-0.005 0.45 0.011 0.509 0.182 0.858 0.22 0.429 0.531 0.681 0.933 0.74 0.343 0.054 0.788-0.080 0.959-0.289l0.139-0.161 0.016 0.172 0.016 0.177 0.777 0.032v-4.24h-0.804v0.708zM18.283 27.299c0.257 0.172 0.37 0.423 0.37 0.842 0 0.579-0.273 0.943-0.697 0.933-0.273-0.011-0.472-0.139-0.574-0.386-0.209-0.504-0.091-1.163 0.247-1.388 0.23-0.155 0.423-0.155 0.654 0z"></path>
<path d="M7.188 26.549c-0.295 0.113-0.6 0.407-0.75 0.729-0.123 0.263-0.139 0.37-0.139 0.863 0 0.531 0.011 0.59 0.172 0.917 0.22 0.445 0.461 0.622 0.949 0.708 0.67 0.113 1.244-0.113 1.544-0.606 0.080-0.134 0.161-0.332 0.182-0.445l0.032-0.198h-0.434c-0.375 0-0.434 0.011-0.434 0.091 0 0.054-0.048 0.172-0.107 0.268-0.204 0.338-0.74 0.279-0.949-0.102-0.134-0.241-0.134-1.013 0-1.26 0.198-0.375 0.622-0.461 0.9-0.182 0.086 0.086 0.155 0.198 0.155 0.241 0 0.070 0.075 0.086 0.429 0.086 0.472 0 0.466 0.005 0.37-0.348-0.080-0.295-0.279-0.541-0.547-0.681-0.273-0.145-1.083-0.188-1.372-0.080z"></path>
<path d="M13.91 26.608c-0.45 0.209-0.686 0.547-0.788 1.152-0.048 0.3-0.048 0.461 0 0.761 0.102 0.6 0.3 0.874 0.788 1.099 0.74 0.338 1.554 0.145 1.962-0.461 0.252-0.375 0.225-0.429-0.241-0.429-0.381 0-0.402 0.005-0.584 0.188-0.15 0.15-0.23 0.188-0.391 0.188-0.364 0-0.627-0.22-0.697-0.579l-0.032-0.172h2.155v-0.279c0-0.498-0.15-0.89-0.45-1.201-0.316-0.322-0.52-0.397-1.077-0.397-0.279 0-0.445 0.032-0.643 0.129zM14.944 27.262c0.139 0.091 0.3 0.423 0.252 0.504-0.038 0.064-1.19 0.070-1.227 0.011-0.011-0.021 0.021-0.145 0.075-0.268 0.166-0.364 0.557-0.472 0.9-0.247z"></path>
<path d="M26.023 26.608c-0.45 0.209-0.686 0.547-0.788 1.152-0.048 0.3-0.048 0.461 0 0.761 0.102 0.6 0.3 0.874 0.788 1.099 0.74 0.338 1.554 0.145 1.962-0.461 0.252-0.375 0.225-0.429-0.241-0.429-0.381 0-0.402 0.005-0.584 0.188-0.15 0.15-0.23 0.188-0.391 0.188-0.364 0-0.627-0.22-0.697-0.579l-0.032-0.172h2.155v-0.279c0-0.498-0.15-0.89-0.45-1.201-0.316-0.322-0.52-0.397-1.077-0.397-0.279 0-0.445 0.032-0.643 0.129zM27.058 27.262c0.139 0.091 0.3 0.423 0.252 0.504-0.038 0.064-1.19 0.070-1.227 0.011-0.011-0.021 0.021-0.145 0.075-0.268 0.166-0.364 0.557-0.472 0.901-0.247z"></path>
<path d="M20.208 27.696c0 0.649 0.027 1.26 0.059 1.372 0.075 0.273 0.338 0.557 0.574 0.627 0.466 0.129 0.895 0.043 1.233-0.236l0.172-0.15v0.386h0.804v-3.162h-0.858v0.992c0 1.072-0.038 1.276-0.273 1.442-0.166 0.113-0.541 0.113-0.686-0.011-0.177-0.139-0.214-0.423-0.22-1.474v-0.949h-0.804v1.163z"></path>
</svg>
