<!-- Generated by IcoMoon.io -->
<svg version="1.1" xmlns="http://www.w3.org/2000/svg" width="32" height="32" viewBox="0 0 32 32">
<title>Strength</title>
<path d="M9.537 3.124c-0.734 0.159-1.422 0.793-1.657 1.531-0.080 0.239-0.092 0.407-0.109 1.418l-0.025 1.141-0.13-0.080c-0.466-0.285-1.241-0.277-1.699 0.017-0.252 0.159-0.537 0.491-0.658 0.747-0.147 0.323-0.18 0.642-0.185 1.644v0.843l-0.298-0.017c-0.482-0.029-0.881 0.189-1.099 0.596-0.092 0.168-0.092 0.197-0.092 2.185 0 1.996 0 2.013 0.092 2.185 0.193 0.365 0.528 0.596 0.914 0.633 0.122 0.013 0.281 0.004 0.352-0.021l0.13-0.046v0.847c0.004 1.371 0.080 1.686 0.512 2.126 0.533 0.541 1.405 0.663 2.030 0.289l0.134-0.080 0.021 1.12c0.013 0.621 0.042 1.208 0.071 1.313 0.201 0.809 0.944 1.518 1.753 1.678 1.019 0.201 2.026-0.302 2.504-1.246 0.226-0.453 0.231-0.516 0.231-4.005v-3.213l0.21 0.080c0.201 0.075 0.369 0.080 3.565 0.080 3.187 0 3.364-0.004 3.565-0.080l0.206-0.080 0.013 3.343 0.013 3.338 0.096 0.268c0.239 0.658 0.759 1.195 1.388 1.434 0.151 0.055 0.377 0.096 0.633 0.109 0.684 0.038 1.199-0.151 1.703-0.629 0.315-0.298 0.549-0.684 0.646-1.078 0.029-0.105 0.059-0.692 0.071-1.313l0.021-1.12 0.134 0.080c0.596 0.361 1.48 0.252 1.984-0.239 0.47-0.457 0.52-0.637 0.545-1.967l0.021-1.053 0.126 0.042c0.172 0.059 0.533 0.017 0.738-0.088 0.21-0.109 0.407-0.302 0.524-0.524 0.092-0.168 0.092-0.201 0.105-2.097 0.013-2.168 0.008-2.193-0.294-2.525-0.235-0.256-0.516-0.365-0.902-0.344l-0.306 0.013v-0.839c-0.004-1.002-0.038-1.321-0.185-1.644-0.122-0.256-0.407-0.587-0.658-0.747-0.457-0.294-1.233-0.302-1.699-0.017l-0.13 0.080-0.025-1.141c-0.021-1.3-0.055-1.476-0.365-1.95-0.507-0.772-1.363-1.162-2.269-1.028-0.885 0.126-1.678 0.877-1.862 1.757-0.050 0.235-0.063 0.864-0.063 3.439 0 1.736-0.004 3.158-0.008 3.158-0.008 0-0.088-0.029-0.18-0.063-0.252-0.088-6.92-0.088-7.172 0-0.092 0.034-0.172 0.063-0.176 0.063-0.008 0-0.013-1.422-0.013-3.158 0-3.502 0-3.489-0.273-4.009-0.168-0.319-0.587-0.755-0.902-0.939-0.436-0.252-1.074-0.336-1.619-0.218zM10.367 3.821c0.319 0.067 0.52 0.185 0.788 0.453 0.164 0.159 0.268 0.315 0.34 0.487l0.101 0.252v16.273l-0.096 0.243c-0.138 0.34-0.478 0.696-0.814 0.851-0.231 0.105-0.31 0.122-0.646 0.122-0.344-0.004-0.411-0.017-0.654-0.138-0.327-0.159-0.583-0.424-0.738-0.755l-0.113-0.239-0.013-8.166c-0.008-8.136-0.008-8.166 0.075-8.392 0.185-0.487 0.612-0.864 1.103-0.973 0.331-0.071 0.394-0.071 0.667-0.017zM22.492 3.837c0.507 0.109 0.931 0.474 1.12 0.973 0.084 0.226 0.084 0.256 0.076 8.392l-0.013 8.166-0.113 0.239c-0.226 0.486-0.625 0.788-1.158 0.881-0.524 0.088-0.981-0.063-1.346-0.449-0.273-0.289-0.373-0.503-0.428-0.893-0.025-0.214-0.038-3.024-0.029-8.229l0.013-7.906 0.096-0.239c0.189-0.466 0.658-0.856 1.141-0.952 0.268-0.055 0.323-0.050 0.642 0.017zM7.214 7.759c0.176 0.092 0.34 0.26 0.445 0.461 0.075 0.138 0.080 0.352 0.092 4.777 0.008 3.066-0.004 4.706-0.034 4.865-0.172 0.931-1.413 1.090-1.808 0.235-0.075-0.159-0.080-0.403-0.080-4.941 0-5.226-0.013-4.932 0.243-5.201 0.294-0.31 0.763-0.39 1.141-0.197zM25.877 7.759c0.193 0.101 0.357 0.277 0.436 0.47 0.059 0.138 0.067 0.709 0.067 4.92 0 5.255 0.017 4.92-0.264 5.217-0.537 0.562-1.476 0.277-1.623-0.495-0.055-0.294-0.059-9.072 0-9.411 0.105-0.646 0.801-0.998 1.384-0.7zM4.878 11.122c0.197 0.105 0.193 0.080 0.197 2.038v1.858l-0.105 0.101c-0.138 0.143-0.39 0.143-0.554 0.004l-0.117-0.101-0.013-1.778c-0.008-0.973 0-1.82 0.013-1.87 0.059-0.239 0.361-0.369 0.579-0.252zM27.777 11.173c0.059 0.055 0.122 0.147 0.134 0.201 0.013 0.050 0.021 0.898 0.013 1.87l-0.013 1.778-0.117 0.101c-0.164 0.138-0.415 0.138-0.554-0.004l-0.105-0.101v-1.858c0.004-1.397 0.017-1.875 0.055-1.925 0.147-0.185 0.419-0.218 0.587-0.063zM19.569 12.179l0.143 0.143v0.772c0 0.856-0.017 0.914-0.277 1.023-0.21 0.088-6.45 0.088-6.66 0-0.26-0.109-0.277-0.168-0.277-1.023v-0.772l0.285-0.285h6.643l0.143 0.143z"></path>
<path d="M24.157 27.45v2.118h0.797v-2.168l0.101-0.092c0.126-0.122 0.432-0.164 0.612-0.088 0.235 0.096 0.252 0.18 0.252 1.321v1.028h0.797v-1.103c0-1.267-0.025-1.426-0.281-1.678-0.176-0.176-0.352-0.239-0.696-0.239-0.277 0-0.503 0.080-0.667 0.239l-0.117 0.113v-1.569h-0.797v2.118z"></path>
<path d="M6.58 25.541c-0.44 0.080-0.801 0.319-0.969 0.65-0.126 0.243-0.117 0.612 0.021 0.889 0.176 0.344 0.432 0.516 1.128 0.763 0.633 0.222 0.809 0.34 0.856 0.579 0.075 0.398-0.361 0.646-0.902 0.516-0.252-0.059-0.445-0.252-0.491-0.482l-0.025-0.147h-0.788v0.155c0 0.344 0.285 0.738 0.671 0.935 0.482 0.243 1.246 0.273 1.711 0.063 0.268-0.122 0.52-0.357 0.604-0.558 0.071-0.185 0.059-0.679-0.029-0.847-0.172-0.344-0.558-0.621-1.162-0.83-0.663-0.235-0.872-0.382-0.872-0.621 0-0.134 0.134-0.31 0.277-0.373 0.218-0.092 0.596-0.080 0.759 0.021 0.134 0.080 0.264 0.277 0.264 0.398 0 0.050 0.067 0.063 0.398 0.063h0.398v-0.138c0-0.361-0.357-0.793-0.793-0.956-0.264-0.096-0.755-0.138-1.057-0.080z"></path>
<path d="M9.134 26.221l-0.013 0.348-0.44 0.025v0.541h0.411l0.017 0.931c0.013 0.881 0.017 0.948 0.113 1.137 0.13 0.273 0.344 0.382 0.717 0.382 0.151 0 0.323-0.013 0.39-0.029 0.109-0.029 0.113-0.038 0.113-0.323v-0.294h-0.189c-0.134 0-0.214-0.025-0.273-0.084-0.080-0.080-0.084-0.13-0.075-0.893l0.013-0.805 0.482-0.025v-0.537l-0.482-0.025-0.013-0.348-0.013-0.344h-0.747l-0.013 0.344z"></path>
<path d="M22.429 26.221l-0.013 0.348-0.44 0.025v0.541h0.461v0.935c0 0.885 0.004 0.944 0.096 1.12 0.168 0.336 0.52 0.47 0.99 0.377 0.122-0.021 0.231-0.042 0.239-0.042s0.017-0.134 0.017-0.294v-0.294h-0.206c-0.34 0-0.34-0.004-0.34-0.969v-0.835h0.503v-0.545h-0.503v-0.713h-0.793l-0.013 0.344z"></path>
<path d="M12.049 26.552c-0.075 0.021-0.206 0.105-0.285 0.189l-0.147 0.147v-0.298h-0.755v2.978h0.797v-0.998c0-0.981 0-1.002 0.096-1.090 0.134-0.126 0.294-0.176 0.558-0.176h0.226v-0.373c0-0.352-0.004-0.373-0.092-0.398-0.126-0.034-0.235-0.025-0.398 0.021z"></path>
<path d="M17.25 26.544c-0.164 0.042-0.516 0.247-0.516 0.298 0 0.025-0.017 0.042-0.042 0.042-0.021 0-0.042-0.067-0.042-0.147v-0.147h-0.797v2.936h0.839v-2.126l0.105-0.096c0.080-0.076 0.168-0.105 0.348-0.117 0.214-0.017 0.26-0.004 0.369 0.088l0.122 0.105 0.025 2.147h0.793v-1.111c0-1.007-0.008-1.128-0.084-1.334-0.084-0.222-0.226-0.394-0.407-0.486-0.122-0.063-0.545-0.092-0.713-0.050z"></path>
<path d="M13.66 26.607c-0.365 0.134-0.612 0.369-0.793 0.763-0.084 0.176-0.096 0.277-0.096 0.709 0 0.428 0.013 0.533 0.092 0.7 0.126 0.277 0.386 0.541 0.671 0.688 0.218 0.109 0.281 0.122 0.642 0.122 0.495-0.004 0.768-0.088 1.028-0.327l0.193-0.176-0.193-0.222-0.197-0.218-0.143 0.122c-0.31 0.273-0.822 0.281-1.078 0.017-0.122-0.13-0.252-0.407-0.21-0.449 0.017-0.013 0.44-0.025 0.948-0.025h0.923l-0.021-0.411c-0.017-0.327-0.042-0.453-0.134-0.646-0.226-0.482-0.587-0.705-1.137-0.7-0.185 0-0.407 0.025-0.495 0.055zM14.431 27.248c0.071 0.042 0.147 0.143 0.189 0.252 0.113 0.294 0.092 0.306-0.503 0.306-0.289 0-0.533-0.013-0.541-0.034-0.034-0.046 0.080-0.34 0.168-0.436 0.151-0.172 0.478-0.214 0.688-0.088z"></path>
<path d="M19.649 26.632c-0.243 0.126-0.373 0.268-0.533 0.583-0.138 0.273-0.138 0.281-0.138 0.864 0 0.566 0.004 0.596 0.126 0.83 0.327 0.654 1.015 0.885 1.577 0.537l0.218-0.134-0.029 0.197c-0.050 0.377-0.302 0.604-0.671 0.604-0.197 0-0.486-0.109-0.616-0.235l-0.109-0.105-0.344 0.495 0.113 0.109c0.063 0.059 0.21 0.151 0.323 0.206 0.18 0.084 0.277 0.096 0.692 0.096 0.449 0 0.499-0.008 0.713-0.117 0.289-0.151 0.424-0.273 0.549-0.524 0.101-0.197 0.101-0.197 0.113-1.824l0.013-1.623h-0.717v0.126c0 0.067-0.013 0.126-0.025 0.126s-0.096-0.063-0.193-0.138c-0.155-0.126-0.193-0.134-0.533-0.147-0.294-0.008-0.39 0.008-0.528 0.076zM20.76 27.324l0.126 0.122v1.267l-0.13 0.126c-0.109 0.105-0.159 0.122-0.373 0.122-0.201 0-0.264-0.017-0.361-0.105-0.294-0.273-0.373-0.898-0.168-1.317 0.134-0.277 0.294-0.369 0.583-0.348 0.151 0.013 0.231 0.046 0.323 0.134z"></path>
</svg>
